<mxfile host="65bd71144e">
    <diagram id="ydBwwDkiVWDDJeWPYUnz" name="dsp-full">
        <mxGraphModel dx="1706" dy="879" grid="1" gridSize="10" guides="1" tooltips="1" connect="1" arrows="1" fold="1" page="1" pageScale="1" pageWidth="827" pageHeight="1169" math="0" shadow="0">
            <root>
                <mxCell id="0"/>
                <mxCell id="1" parent="0"/>
                <mxCell id="2" value="" style="shape=partialRectangle;whiteSpace=wrap;html=1;bottom=1;right=1;left=1;top=0;fillColor=none;routingCenterX=-0.5;dashed=1;rotation=-180;" parent="1" vertex="1">
                    <mxGeometry x="500" y="310" width="320" height="300" as="geometry"/>
                </mxCell>
                <mxCell id="3" value="" style="rounded=0;whiteSpace=wrap;html=1;dashed=1;fillColor=none;" parent="1" vertex="1">
                    <mxGeometry x="500" y="230" width="320" height="70" as="geometry"/>
                </mxCell>
                <mxCell id="4" value="" style="shape=partialRectangle;whiteSpace=wrap;html=1;bottom=1;right=1;left=1;top=0;fillColor=none;routingCenterX=-0.5;dashed=1;" parent="1" vertex="1">
                    <mxGeometry x="500" y="30" width="320" height="190" as="geometry"/>
                </mxCell>
                <mxCell id="5" value="" style="shape=parallelogram;perimeter=parallelogramPerimeter;whiteSpace=wrap;html=1;fixedSize=1;size=160;fillColor=#ffe6cc;strokeColor=#d79b00;" parent="1" vertex="1">
                    <mxGeometry x="60" y="130" width="340" height="160" as="geometry"/>
                </mxCell>
                <mxCell id="6" value="" style="shape=parallelogram;perimeter=parallelogramPerimeter;whiteSpace=wrap;html=1;fixedSize=1;size=80;fillColor=#d5e8d4;strokeColor=#82b366;" parent="1" vertex="1">
                    <mxGeometry x="70" y="210" width="160" height="80" as="geometry"/>
                </mxCell>
                <mxCell id="7" value="" style="shape=parallelogram;perimeter=parallelogramPerimeter;whiteSpace=wrap;html=1;fixedSize=1;size=80;fillColor=#dae8fc;strokeColor=#6c8ebf;" parent="1" vertex="1">
                    <mxGeometry x="230" y="130" width="160" height="80" as="geometry"/>
                </mxCell>
                <mxCell id="8" value="" style="ellipse;whiteSpace=wrap;html=1;aspect=fixed;" parent="1" vertex="1">
                    <mxGeometry x="220" y="40" width="20" height="20" as="geometry"/>
                </mxCell>
                <mxCell id="9" value="" style="ellipse;whiteSpace=wrap;html=1;aspect=fixed;" parent="1" vertex="1">
                    <mxGeometry x="260" y="40" width="20" height="20" as="geometry"/>
                </mxCell>
                <mxCell id="10" value="" style="ellipse;whiteSpace=wrap;html=1;aspect=fixed;" parent="1" vertex="1">
                    <mxGeometry x="300" y="40" width="20" height="20" as="geometry"/>
                </mxCell>
                <mxCell id="11" value="" style="ellipse;whiteSpace=wrap;html=1;aspect=fixed;" parent="1" vertex="1">
                    <mxGeometry x="340" y="40" width="20" height="20" as="geometry"/>
                </mxCell>
                <mxCell id="12" value="" style="ellipse;whiteSpace=wrap;html=1;aspect=fixed;" parent="1" vertex="1">
                    <mxGeometry x="220" y="80" width="20" height="20" as="geometry"/>
                </mxCell>
                <mxCell id="13" value="" style="ellipse;whiteSpace=wrap;html=1;aspect=fixed;" parent="1" vertex="1">
                    <mxGeometry x="260" y="80" width="20" height="20" as="geometry"/>
                </mxCell>
                <mxCell id="14" value="" style="ellipse;whiteSpace=wrap;html=1;aspect=fixed;" parent="1" vertex="1">
                    <mxGeometry x="300" y="80" width="20" height="20" as="geometry"/>
                </mxCell>
                <mxCell id="15" value="" style="ellipse;whiteSpace=wrap;html=1;aspect=fixed;" parent="1" vertex="1">
                    <mxGeometry x="340" y="80" width="20" height="20" as="geometry"/>
                </mxCell>
                <mxCell id="16" value="" style="endArrow=none;html=1;" parent="1" edge="1">
                    <mxGeometry width="50" height="50" relative="1" as="geometry">
                        <mxPoint x="160.00000000000023" y="120" as="sourcePoint"/>
                        <mxPoint x="360.0000000000002" y="120" as="targetPoint"/>
                    </mxGeometry>
                </mxCell>
                <mxCell id="17" value="" style="endArrow=none;html=1;" parent="1" edge="1">
                    <mxGeometry width="50" height="50" relative="1" as="geometry">
                        <mxPoint x="160.00000000000023" y="100" as="sourcePoint"/>
                        <mxPoint x="180.00000000000023" y="80" as="targetPoint"/>
                    </mxGeometry>
                </mxCell>
                <mxCell id="18" value="" style="endArrow=none;html=1;" parent="1" edge="1">
                    <mxGeometry width="50" height="50" relative="1" as="geometry">
                        <mxPoint x="160.00000000000023" y="80" as="sourcePoint"/>
                        <mxPoint x="180.00000000000023" y="100" as="targetPoint"/>
                    </mxGeometry>
                </mxCell>
                <mxCell id="19" value="" style="ellipse;whiteSpace=wrap;html=1;aspect=fixed;" parent="1" vertex="1">
                    <mxGeometry x="220" y="140" width="20" height="20" as="geometry"/>
                </mxCell>
                <mxCell id="20" value="" style="ellipse;whiteSpace=wrap;html=1;aspect=fixed;" parent="1" vertex="1">
                    <mxGeometry x="260" y="140" width="20" height="20" as="geometry"/>
                </mxCell>
                <mxCell id="21" value="" style="ellipse;whiteSpace=wrap;html=1;aspect=fixed;" parent="1" vertex="1">
                    <mxGeometry x="300" y="140" width="20" height="20" as="geometry"/>
                </mxCell>
                <mxCell id="22" value="" style="ellipse;whiteSpace=wrap;html=1;aspect=fixed;" parent="1" vertex="1">
                    <mxGeometry x="340" y="140" width="20" height="20" as="geometry"/>
                </mxCell>
                <mxCell id="23" value="" style="ellipse;whiteSpace=wrap;html=1;aspect=fixed;" parent="1" vertex="1">
                    <mxGeometry x="180" y="180" width="20" height="20" as="geometry"/>
                </mxCell>
                <mxCell id="24" value="" style="ellipse;whiteSpace=wrap;html=1;aspect=fixed;" parent="1" vertex="1">
                    <mxGeometry x="220" y="180" width="20" height="20" as="geometry"/>
                </mxCell>
                <mxCell id="25" value="" style="ellipse;whiteSpace=wrap;html=1;aspect=fixed;" parent="1" vertex="1">
                    <mxGeometry x="260" y="180" width="20" height="20" as="geometry"/>
                </mxCell>
                <mxCell id="26" value="" style="ellipse;whiteSpace=wrap;html=1;aspect=fixed;" parent="1" vertex="1">
                    <mxGeometry x="300" y="180" width="20" height="20" as="geometry"/>
                </mxCell>
                <mxCell id="27" value="" style="ellipse;whiteSpace=wrap;html=1;aspect=fixed;" parent="1" vertex="1">
                    <mxGeometry x="140" y="220" width="20" height="20" as="geometry"/>
                </mxCell>
                <mxCell id="28" value="" style="ellipse;whiteSpace=wrap;html=1;aspect=fixed;" parent="1" vertex="1">
                    <mxGeometry x="180" y="220" width="20" height="20" as="geometry"/>
                </mxCell>
                <mxCell id="29" value="" style="ellipse;whiteSpace=wrap;html=1;aspect=fixed;" parent="1" vertex="1">
                    <mxGeometry x="220" y="220" width="20" height="20" as="geometry"/>
                </mxCell>
                <mxCell id="30" value="" style="ellipse;whiteSpace=wrap;html=1;aspect=fixed;" parent="1" vertex="1">
                    <mxGeometry x="260" y="220" width="20" height="20" as="geometry"/>
                </mxCell>
                <mxCell id="31" value="" style="ellipse;whiteSpace=wrap;html=1;aspect=fixed;" parent="1" vertex="1">
                    <mxGeometry x="100" y="260" width="20" height="20" as="geometry"/>
                </mxCell>
                <mxCell id="32" value="" style="ellipse;whiteSpace=wrap;html=1;aspect=fixed;" parent="1" vertex="1">
                    <mxGeometry x="140" y="260" width="20" height="20" as="geometry"/>
                </mxCell>
                <mxCell id="33" value="" style="ellipse;whiteSpace=wrap;html=1;aspect=fixed;" parent="1" vertex="1">
                    <mxGeometry x="180" y="260" width="20" height="20" as="geometry"/>
                </mxCell>
                <mxCell id="34" value="" style="ellipse;whiteSpace=wrap;html=1;aspect=fixed;" parent="1" vertex="1">
                    <mxGeometry x="220" y="260" width="20" height="20" as="geometry"/>
                </mxCell>
                <mxCell id="35" value="" style="endArrow=none;html=1;" parent="1" edge="1">
                    <mxGeometry width="50" height="50" relative="1" as="geometry">
                        <mxPoint x="40" y="300" as="sourcePoint"/>
                        <mxPoint x="360.0000000000002" y="300" as="targetPoint"/>
                    </mxGeometry>
                </mxCell>
                <mxCell id="36" value="" style="ellipse;whiteSpace=wrap;html=1;aspect=fixed;" parent="1" vertex="1">
                    <mxGeometry x="220" y="320" width="20" height="20" as="geometry"/>
                </mxCell>
                <mxCell id="37" value="" style="ellipse;whiteSpace=wrap;html=1;aspect=fixed;" parent="1" vertex="1">
                    <mxGeometry x="260" y="320" width="20" height="20" as="geometry"/>
                </mxCell>
                <mxCell id="38" value="" style="ellipse;whiteSpace=wrap;html=1;aspect=fixed;" parent="1" vertex="1">
                    <mxGeometry x="300" y="320" width="20" height="20" as="geometry"/>
                </mxCell>
                <mxCell id="39" value="" style="ellipse;whiteSpace=wrap;html=1;aspect=fixed;" parent="1" vertex="1">
                    <mxGeometry x="340" y="320" width="20" height="20" as="geometry"/>
                </mxCell>
                <mxCell id="40" value="" style="ellipse;whiteSpace=wrap;html=1;aspect=fixed;" parent="1" vertex="1">
                    <mxGeometry x="60" y="320" width="20" height="20" as="geometry"/>
                </mxCell>
                <mxCell id="41" value="" style="ellipse;whiteSpace=wrap;html=1;aspect=fixed;" parent="1" vertex="1">
                    <mxGeometry x="100" y="320" width="20" height="20" as="geometry"/>
                </mxCell>
                <mxCell id="42" value="" style="ellipse;whiteSpace=wrap;html=1;aspect=fixed;" parent="1" vertex="1">
                    <mxGeometry x="140" y="320" width="20" height="20" as="geometry"/>
                </mxCell>
                <mxCell id="43" value="" style="ellipse;whiteSpace=wrap;html=1;aspect=fixed;" parent="1" vertex="1">
                    <mxGeometry x="180" y="320" width="20" height="20" as="geometry"/>
                </mxCell>
                <mxCell id="44" value="carry" style="text;html=1;align=center;verticalAlign=middle;resizable=0;points=[];autosize=1;strokeColor=none;fillColor=none;" parent="1" vertex="1">
                    <mxGeometry x="50" y="340" width="40" height="20" as="geometry"/>
                </mxCell>
                <mxCell id="45" value="karatsuba:" style="text;html=1;align=center;verticalAlign=middle;resizable=0;points=[];autosize=1;strokeColor=none;fillColor=none;" parent="1" vertex="1">
                    <mxGeometry x="85" y="370" width="70" height="20" as="geometry"/>
                </mxCell>
                <mxCell id="46" value="" style="rounded=0;whiteSpace=wrap;html=1;fillColor=#ffe6cc;strokeColor=#d79b00;" parent="1" vertex="1">
                    <mxGeometry x="160" y="370" width="40" height="20" as="geometry"/>
                </mxCell>
                <mxCell id="47" value="-" style="text;html=1;align=center;verticalAlign=middle;resizable=0;points=[];autosize=1;strokeColor=none;fillColor=none;" parent="1" vertex="1">
                    <mxGeometry x="200" y="370" width="20" height="20" as="geometry"/>
                </mxCell>
                <mxCell id="48" value="" style="rounded=0;whiteSpace=wrap;html=1;fillColor=#dae8fc;strokeColor=#6c8ebf;" parent="1" vertex="1">
                    <mxGeometry x="220" y="370" width="40" height="20" as="geometry"/>
                </mxCell>
                <mxCell id="49" value="-" style="text;html=1;align=center;verticalAlign=middle;resizable=0;points=[];autosize=1;strokeColor=none;fillColor=none;" parent="1" vertex="1">
                    <mxGeometry x="260" y="370" width="20" height="20" as="geometry"/>
                </mxCell>
                <mxCell id="50" value="" style="rounded=0;whiteSpace=wrap;html=1;fillColor=#d5e8d4;strokeColor=#82b366;" parent="1" vertex="1">
                    <mxGeometry x="280" y="370" width="40" height="20" as="geometry"/>
                </mxCell>
                <mxCell id="51" value="A" style="rounded=0;whiteSpace=wrap;html=1;fillColor=none;" parent="1" vertex="1">
                    <mxGeometry x="210" y="40" width="80" height="20" as="geometry"/>
                </mxCell>
                <mxCell id="52" value="B" style="rounded=0;whiteSpace=wrap;html=1;fillColor=none;" parent="1" vertex="1">
                    <mxGeometry x="290" y="40" width="80" height="20" as="geometry"/>
                </mxCell>
                <mxCell id="53" value="C" style="rounded=0;whiteSpace=wrap;html=1;fillColor=none;" parent="1" vertex="1">
                    <mxGeometry x="210" y="80" width="80" height="20" as="geometry"/>
                </mxCell>
                <mxCell id="54" value="D" style="rounded=0;whiteSpace=wrap;html=1;fillColor=none;" parent="1" vertex="1">
                    <mxGeometry x="290" y="80" width="80" height="20" as="geometry"/>
                </mxCell>
                <mxCell id="55" style="edgeStyle=none;html=1;exitX=0.5;exitY=1;exitDx=0;exitDy=0;entryX=0;entryY=0;entryDx=0;entryDy=0;" parent="1" source="57" target="68" edge="1">
                    <mxGeometry relative="1" as="geometry"/>
                </mxCell>
                <mxCell id="56" style="edgeStyle=none;html=1;exitX=0.5;exitY=1;exitDx=0;exitDy=0;entryX=0;entryY=0;entryDx=0;entryDy=0;" parent="1" source="57" target="73" edge="1">
                    <mxGeometry relative="1" as="geometry"/>
                </mxCell>
                <mxCell id="57" value="A" style="ellipse;whiteSpace=wrap;html=1;aspect=fixed;fillColor=none;" parent="1" vertex="1">
                    <mxGeometry x="520" y="80" width="40" height="40" as="geometry"/>
                </mxCell>
                <mxCell id="58" style="edgeStyle=none;html=1;exitX=0.5;exitY=1;exitDx=0;exitDy=0;entryX=1;entryY=0;entryDx=0;entryDy=0;" parent="1" source="60" target="68" edge="1">
                    <mxGeometry relative="1" as="geometry"/>
                </mxCell>
                <mxCell id="59" style="edgeStyle=none;html=1;exitX=0.5;exitY=1;exitDx=0;exitDy=0;entryX=0;entryY=0;entryDx=0;entryDy=0;" parent="1" source="60" target="76" edge="1">
                    <mxGeometry relative="1" as="geometry"/>
                </mxCell>
                <mxCell id="60" value="B" style="ellipse;whiteSpace=wrap;html=1;aspect=fixed;fillColor=none;" parent="1" vertex="1">
                    <mxGeometry x="600" y="80" width="40" height="40" as="geometry"/>
                </mxCell>
                <mxCell id="61" style="edgeStyle=none;html=1;exitX=0.5;exitY=1;exitDx=0;exitDy=0;entryX=1;entryY=0;entryDx=0;entryDy=0;fillColor=#ffe6cc;strokeColor=#d79b00;" parent="1" source="63" target="73" edge="1">
                    <mxGeometry relative="1" as="geometry"/>
                </mxCell>
                <mxCell id="62" style="edgeStyle=none;html=1;exitX=0.5;exitY=1;exitDx=0;exitDy=0;entryX=0;entryY=0;entryDx=0;entryDy=0;fillColor=#ffe6cc;strokeColor=#d79b00;" parent="1" source="63" target="70" edge="1">
                    <mxGeometry relative="1" as="geometry"/>
                </mxCell>
                <mxCell id="63" value="C" style="ellipse;whiteSpace=wrap;html=1;aspect=fixed;fillColor=#ffe6cc;strokeColor=#d79b00;" parent="1" vertex="1">
                    <mxGeometry x="680" y="80" width="40" height="40" as="geometry"/>
                </mxCell>
                <mxCell id="64" style="edgeStyle=none;html=1;exitX=0.5;exitY=1;exitDx=0;exitDy=0;entryX=1;entryY=0;entryDx=0;entryDy=0;fillColor=#ffe6cc;strokeColor=#d79b00;" parent="1" source="66" target="76" edge="1">
                    <mxGeometry relative="1" as="geometry"/>
                </mxCell>
                <mxCell id="65" style="edgeStyle=none;html=1;exitX=0.5;exitY=1;exitDx=0;exitDy=0;entryX=1;entryY=0;entryDx=0;entryDy=0;fillColor=#ffe6cc;strokeColor=#d79b00;" parent="1" source="66" target="70" edge="1">
                    <mxGeometry relative="1" as="geometry"/>
                </mxCell>
                <mxCell id="66" value="D" style="ellipse;whiteSpace=wrap;html=1;aspect=fixed;fillColor=#ffe6cc;strokeColor=#d79b00;" parent="1" vertex="1">
                    <mxGeometry x="760" y="80" width="40" height="40" as="geometry"/>
                </mxCell>
                <mxCell id="67" style="edgeStyle=none;html=1;exitX=0.5;exitY=1;exitDx=0;exitDy=0;entryX=0;entryY=0;entryDx=0;entryDy=0;" parent="1" source="68" target="78" edge="1">
                    <mxGeometry relative="1" as="geometry"/>
                </mxCell>
                <mxCell id="68" value="" style="shape=orEllipse;perimeter=ellipsePerimeter;whiteSpace=wrap;html=1;backgroundOutline=1;" parent="1" vertex="1">
                    <mxGeometry x="560" y="160" width="40" height="40" as="geometry"/>
                </mxCell>
                <mxCell id="69" style="edgeStyle=none;html=1;exitX=0.5;exitY=1;exitDx=0;exitDy=0;entryX=1;entryY=0;entryDx=0;entryDy=0;fillColor=#ffe6cc;strokeColor=#d79b00;" parent="1" source="70" target="78" edge="1">
                    <mxGeometry relative="1" as="geometry"/>
                </mxCell>
                <mxCell id="70" value="" style="shape=orEllipse;perimeter=ellipsePerimeter;whiteSpace=wrap;html=1;backgroundOutline=1;fillColor=#ffe6cc;strokeColor=#d79b00;" parent="1" vertex="1">
                    <mxGeometry x="720" y="160" width="40" height="40" as="geometry"/>
                </mxCell>
                <mxCell id="71" style="edgeStyle=none;html=1;exitX=0.5;exitY=1;exitDx=0;exitDy=0;entryX=0;entryY=0;entryDx=0;entryDy=0;" parent="1" source="73" target="80" edge="1">
                    <mxGeometry relative="1" as="geometry"/>
                </mxCell>
                <mxCell id="72" style="edgeStyle=none;html=1;exitX=0.5;exitY=1;exitDx=0;exitDy=0;entryX=0.5;entryY=0;entryDx=0;entryDy=0;" parent="1" source="73" target="82" edge="1">
                    <mxGeometry relative="1" as="geometry"/>
                </mxCell>
                <mxCell id="73" value="" style="shape=sumEllipse;perimeter=ellipsePerimeter;whiteSpace=wrap;html=1;backgroundOutline=1;fillColor=#fff2cc;strokeColor=#d6b656;" parent="1" vertex="1">
                    <mxGeometry x="560" y="240" width="40" height="40" as="geometry"/>
                </mxCell>
                <mxCell id="74" style="edgeStyle=none;html=1;exitX=0.5;exitY=1;exitDx=0;exitDy=0;entryX=1;entryY=0;entryDx=0;entryDy=0;" parent="1" source="76" target="81" edge="1">
                    <mxGeometry relative="1" as="geometry"/>
                </mxCell>
                <mxCell id="75" style="edgeStyle=none;html=1;exitX=0.5;exitY=1;exitDx=0;exitDy=0;entryX=0.543;entryY=0.05;entryDx=0;entryDy=0;entryPerimeter=0;" parent="1" source="76" target="84" edge="1">
                    <mxGeometry relative="1" as="geometry"/>
                </mxCell>
                <mxCell id="76" value="" style="shape=sumEllipse;perimeter=ellipsePerimeter;whiteSpace=wrap;html=1;backgroundOutline=1;fillColor=#fff2cc;strokeColor=#d6b656;" parent="1" vertex="1">
                    <mxGeometry x="720" y="240" width="40" height="40" as="geometry"/>
                </mxCell>
                <mxCell id="77" style="edgeStyle=none;html=1;exitX=0.5;exitY=1;exitDx=0;exitDy=0;entryX=0.5;entryY=0;entryDx=0;entryDy=0;" parent="1" source="78" target="80" edge="1">
                    <mxGeometry relative="1" as="geometry"/>
                </mxCell>
                <mxCell id="78" value="" style="shape=sumEllipse;perimeter=ellipsePerimeter;whiteSpace=wrap;html=1;backgroundOutline=1;fillColor=#fff2cc;strokeColor=#d6b656;" parent="1" vertex="1">
                    <mxGeometry x="640" y="240" width="40" height="40" as="geometry"/>
                </mxCell>
                <mxCell id="79" style="edgeStyle=none;html=1;exitX=0.5;exitY=1;exitDx=0;exitDy=0;entryX=0.5;entryY=0;entryDx=0;entryDy=0;" parent="1" source="80" target="81" edge="1">
                    <mxGeometry relative="1" as="geometry"/>
                </mxCell>
                <mxCell id="80" value="" style="shape=lineEllipse;perimeter=ellipsePerimeter;whiteSpace=wrap;html=1;backgroundOutline=1;" parent="1" vertex="1">
                    <mxGeometry x="640" y="320" width="40" height="40" as="geometry"/>
                </mxCell>
                <mxCell id="81" value="" style="shape=lineEllipse;perimeter=ellipsePerimeter;whiteSpace=wrap;html=1;backgroundOutline=1;" parent="1" vertex="1">
                    <mxGeometry x="640" y="400" width="40" height="40" as="geometry"/>
                </mxCell>
                <mxCell id="82" value="" style="rounded=0;whiteSpace=wrap;html=1;" parent="1" vertex="1">
                    <mxGeometry x="580" y="460" width="80" height="20" as="geometry"/>
                </mxCell>
                <mxCell id="83" value="" style="rounded=0;whiteSpace=wrap;html=1;" parent="1" vertex="1">
                    <mxGeometry x="620" y="520" width="80" height="20" as="geometry"/>
                </mxCell>
                <mxCell id="84" value="" style="rounded=0;whiteSpace=wrap;html=1;" parent="1" vertex="1">
                    <mxGeometry x="660" y="460" width="80" height="20" as="geometry"/>
                </mxCell>
                <mxCell id="85" value="layers&lt;br&gt;of&lt;br&gt;additions" style="text;html=1;align=center;verticalAlign=middle;resizable=0;points=[];autosize=1;strokeColor=none;fillColor=none;" parent="1" vertex="1">
                    <mxGeometry x="415" y="160" width="60" height="50" as="geometry"/>
                </mxCell>
                <mxCell id="86" value="single&lt;br&gt;layer&lt;br&gt;of&lt;br&gt;multiplications" style="text;html=1;align=center;verticalAlign=middle;resizable=0;points=[];autosize=1;strokeColor=none;fillColor=none;" parent="1" vertex="1">
                    <mxGeometry x="400" y="230" width="90" height="60" as="geometry"/>
                </mxCell>
                <mxCell id="87" value="layers&lt;br&gt;of&lt;br&gt;additions" style="text;html=1;align=center;verticalAlign=middle;resizable=0;points=[];autosize=1;strokeColor=none;fillColor=none;" parent="1" vertex="1">
                    <mxGeometry x="415" y="310" width="60" height="50" as="geometry"/>
                </mxCell>
                <mxCell id="88" value="" style="endArrow=none;html=1;strokeWidth=2;rounded=0;fillColor=#f5f5f5;strokeColor=#666666;" parent="1" edge="1">
                    <mxGeometry width="50" height="50" relative="1" as="geometry">
                        <mxPoint x="500" y="209" as="sourcePoint"/>
                        <mxPoint x="820" y="209.43000000000006" as="targetPoint"/>
                    </mxGeometry>
                </mxCell>
                <mxCell id="89" value="" style="endArrow=none;html=1;strokeWidth=2;rounded=0;fillColor=#f5f5f5;strokeColor=#666666;exitX=0;exitY=0.852;exitDx=0;exitDy=0;exitPerimeter=0;" parent="1" source="3" edge="1">
                    <mxGeometry width="50" height="50" relative="1" as="geometry">
                        <mxPoint x="510" y="289" as="sourcePoint"/>
                        <mxPoint x="820" y="289.43000000000006" as="targetPoint"/>
                    </mxGeometry>
                </mxCell>
                <mxCell id="90" value="" style="endArrow=none;html=1;strokeWidth=2;rounded=0;fillColor=#f5f5f5;strokeColor=#666666;" parent="1" edge="1">
                    <mxGeometry width="50" height="50" relative="1" as="geometry">
                        <mxPoint x="500" y="380" as="sourcePoint"/>
                        <mxPoint x="820" y="379.71000000000004" as="targetPoint"/>
                    </mxGeometry>
                </mxCell>
                <mxCell id="91" value="" style="endArrow=none;html=1;strokeWidth=2;rounded=0;fillColor=#f5f5f5;strokeColor=#666666;" parent="1" edge="1">
                    <mxGeometry width="50" height="50" relative="1" as="geometry">
                        <mxPoint x="500" y="450" as="sourcePoint"/>
                        <mxPoint x="820" y="450" as="targetPoint"/>
                    </mxGeometry>
                </mxCell>
                <mxCell id="92" value="" style="endArrow=none;html=1;strokeWidth=2;rounded=0;fillColor=#f5f5f5;strokeColor=#666666;" parent="1" edge="1">
                    <mxGeometry width="50" height="50" relative="1" as="geometry">
                        <mxPoint x="500" y="139.43000000000006" as="sourcePoint"/>
                        <mxPoint x="820" y="139.86000000000013" as="targetPoint"/>
                    </mxGeometry>
                </mxCell>
                <mxCell id="93" style="edgeStyle=none;html=1;exitX=0.5;exitY=1;exitDx=0;exitDy=0;entryX=0;entryY=0;entryDx=0;entryDy=0;" parent="1" source="95" target="106" edge="1">
                    <mxGeometry relative="1" as="geometry"/>
                </mxCell>
                <mxCell id="94" style="edgeStyle=none;html=1;exitX=0.5;exitY=1;exitDx=0;exitDy=0;entryX=0;entryY=0;entryDx=0;entryDy=0;" parent="1" source="95" target="111" edge="1">
                    <mxGeometry relative="1" as="geometry"/>
                </mxCell>
                <mxCell id="95" value="A" style="ellipse;whiteSpace=wrap;html=1;aspect=fixed;fillColor=none;" parent="1" vertex="1">
                    <mxGeometry x="80" y="640" width="40" height="40" as="geometry"/>
                </mxCell>
                <mxCell id="96" style="edgeStyle=none;html=1;exitX=0.5;exitY=1;exitDx=0;exitDy=0;entryX=1;entryY=0;entryDx=0;entryDy=0;" parent="1" source="98" target="106" edge="1">
                    <mxGeometry relative="1" as="geometry"/>
                </mxCell>
                <mxCell id="97" style="edgeStyle=none;html=1;exitX=0.5;exitY=1;exitDx=0;exitDy=0;entryX=0;entryY=0;entryDx=0;entryDy=0;" parent="1" source="98" target="114" edge="1">
                    <mxGeometry relative="1" as="geometry"/>
                </mxCell>
                <mxCell id="98" value="B" style="ellipse;whiteSpace=wrap;html=1;aspect=fixed;fillColor=none;" parent="1" vertex="1">
                    <mxGeometry x="160" y="640" width="40" height="40" as="geometry"/>
                </mxCell>
                <mxCell id="99" style="edgeStyle=none;html=1;exitX=0.5;exitY=1;exitDx=0;exitDy=0;entryX=1;entryY=0;entryDx=0;entryDy=0;" parent="1" source="101" target="111" edge="1">
                    <mxGeometry relative="1" as="geometry"/>
                </mxCell>
                <mxCell id="100" style="edgeStyle=none;html=1;exitX=0.5;exitY=1;exitDx=0;exitDy=0;entryX=0;entryY=0;entryDx=0;entryDy=0;" parent="1" source="101" target="108" edge="1">
                    <mxGeometry relative="1" as="geometry"/>
                </mxCell>
                <mxCell id="101" value="C" style="ellipse;whiteSpace=wrap;html=1;aspect=fixed;fillColor=none;" parent="1" vertex="1">
                    <mxGeometry x="240" y="640" width="40" height="40" as="geometry"/>
                </mxCell>
                <mxCell id="102" style="edgeStyle=none;html=1;exitX=0.5;exitY=1;exitDx=0;exitDy=0;entryX=1;entryY=0;entryDx=0;entryDy=0;" parent="1" source="104" target="114" edge="1">
                    <mxGeometry relative="1" as="geometry"/>
                </mxCell>
                <mxCell id="103" style="edgeStyle=none;html=1;exitX=0.5;exitY=1;exitDx=0;exitDy=0;entryX=1;entryY=0;entryDx=0;entryDy=0;" parent="1" source="104" target="108" edge="1">
                    <mxGeometry relative="1" as="geometry"/>
                </mxCell>
                <mxCell id="104" value="D" style="ellipse;whiteSpace=wrap;html=1;aspect=fixed;fillColor=none;" parent="1" vertex="1">
                    <mxGeometry x="320" y="640" width="40" height="40" as="geometry"/>
                </mxCell>
                <mxCell id="105" style="edgeStyle=none;html=1;exitX=0.5;exitY=1;exitDx=0;exitDy=0;entryX=0;entryY=0;entryDx=0;entryDy=0;" parent="1" source="106" target="116" edge="1">
                    <mxGeometry relative="1" as="geometry"/>
                </mxCell>
                <mxCell id="106" value="" style="shape=orEllipse;perimeter=ellipsePerimeter;whiteSpace=wrap;html=1;backgroundOutline=1;fillColor=#e1d5e7;strokeColor=#9673a6;" parent="1" vertex="1">
                    <mxGeometry x="120" y="800" width="40" height="40" as="geometry"/>
                </mxCell>
                <mxCell id="107" style="edgeStyle=none;html=1;exitX=0.5;exitY=1;exitDx=0;exitDy=0;entryX=1;entryY=0;entryDx=0;entryDy=0;" parent="1" source="108" target="116" edge="1">
                    <mxGeometry relative="1" as="geometry">
                        <mxPoint x="310" y="800" as="sourcePoint"/>
                    </mxGeometry>
                </mxCell>
                <mxCell id="108" value="" style="shape=orEllipse;perimeter=ellipsePerimeter;whiteSpace=wrap;html=1;backgroundOutline=1;fillColor=none;" parent="1" vertex="1">
                    <mxGeometry x="280" y="720" width="40" height="40" as="geometry"/>
                </mxCell>
                <mxCell id="109" style="edgeStyle=none;html=1;exitX=0.5;exitY=1;exitDx=0;exitDy=0;entryX=0;entryY=0;entryDx=0;entryDy=0;" parent="1" source="111" target="118" edge="1">
                    <mxGeometry relative="1" as="geometry"/>
                </mxCell>
                <mxCell id="110" style="edgeStyle=none;html=1;exitX=0.5;exitY=1;exitDx=0;exitDy=0;entryX=0.5;entryY=0;entryDx=0;entryDy=0;" parent="1" source="111" target="202" edge="1">
                    <mxGeometry relative="1" as="geometry">
                        <mxPoint x="190" y="1000" as="targetPoint"/>
                    </mxGeometry>
                </mxCell>
                <mxCell id="111" value="" style="shape=sumEllipse;perimeter=ellipsePerimeter;whiteSpace=wrap;html=1;backgroundOutline=1;fillColor=#f8cecc;strokeColor=#b85450;" parent="1" vertex="1">
                    <mxGeometry x="50" y="720" width="40" height="40" as="geometry"/>
                </mxCell>
                <mxCell id="112" style="edgeStyle=none;html=1;exitX=0.5;exitY=1;exitDx=0;exitDy=0;entryX=1;entryY=0;entryDx=0;entryDy=0;" parent="1" source="114" target="120" edge="1">
                    <mxGeometry relative="1" as="geometry"/>
                </mxCell>
                <mxCell id="113" style="edgeStyle=none;html=1;exitX=0.5;exitY=1;exitDx=0;exitDy=0;entryX=0.5;entryY=0;entryDx=0;entryDy=0;" parent="1" source="114" target="204" edge="1">
                    <mxGeometry relative="1" as="geometry">
                        <mxPoint x="273.4399999999998" y="1100.9999999999998" as="targetPoint"/>
                    </mxGeometry>
                </mxCell>
                <mxCell id="114" value="" style="shape=sumEllipse;perimeter=ellipsePerimeter;whiteSpace=wrap;html=1;backgroundOutline=1;fillColor=#fff2cc;strokeColor=#d6b656;" parent="1" vertex="1">
                    <mxGeometry x="370" y="720" width="40" height="40" as="geometry"/>
                </mxCell>
                <mxCell id="115" style="edgeStyle=none;html=1;exitX=0.5;exitY=1;exitDx=0;exitDy=0;entryX=0.5;entryY=0;entryDx=0;entryDy=0;" parent="1" source="116" target="118" edge="1">
                    <mxGeometry relative="1" as="geometry"/>
                </mxCell>
                <mxCell id="116" value="" style="shape=sumEllipse;perimeter=ellipsePerimeter;whiteSpace=wrap;html=1;backgroundOutline=1;fillColor=#e1d5e7;strokeColor=#9673a6;" parent="1" vertex="1">
                    <mxGeometry x="200" y="880" width="40" height="40" as="geometry"/>
                </mxCell>
                <mxCell id="117" style="edgeStyle=none;html=1;exitX=0.5;exitY=1;exitDx=0;exitDy=0;entryX=0.5;entryY=0;entryDx=0;entryDy=0;" parent="1" source="118" target="120" edge="1">
                    <mxGeometry relative="1" as="geometry"/>
                </mxCell>
                <mxCell id="118" value="" style="shape=lineEllipse;perimeter=ellipsePerimeter;whiteSpace=wrap;html=1;backgroundOutline=1;fillColor=#e1d5e7;strokeColor=#9673a6;" parent="1" vertex="1">
                    <mxGeometry x="200.03" y="960" width="40" height="40" as="geometry"/>
                </mxCell>
                <mxCell id="119" style="edgeStyle=orthogonalEdgeStyle;html=1;exitX=0;exitY=0.5;exitDx=0;exitDy=0;entryX=0;entryY=0.5;entryDx=0;entryDy=0;rounded=0;" parent="1" source="120" target="203" edge="1">
                    <mxGeometry relative="1" as="geometry">
                        <mxPoint x="320.03" y="1190" as="targetPoint"/>
                        <Array as="points">
                            <mxPoint x="120" y="1060"/>
                            <mxPoint x="120" y="1170"/>
                        </Array>
                    </mxGeometry>
                </mxCell>
                <mxCell id="120" value="" style="shape=lineEllipse;perimeter=ellipsePerimeter;whiteSpace=wrap;html=1;backgroundOutline=1;" parent="1" vertex="1">
                    <mxGeometry x="200.03" y="1040" width="40" height="40" as="geometry"/>
                </mxCell>
                <mxCell id="121" style="edgeStyle=none;html=1;exitX=0.5;exitY=1;exitDx=0;exitDy=0;entryX=0;entryY=0;entryDx=0;entryDy=0;" parent="1" source="123" target="134" edge="1">
                    <mxGeometry relative="1" as="geometry"/>
                </mxCell>
                <mxCell id="122" style="edgeStyle=none;html=1;exitX=0.5;exitY=1;exitDx=0;exitDy=0;entryX=0;entryY=0;entryDx=0;entryDy=0;" parent="1" source="123" target="139" edge="1">
                    <mxGeometry relative="1" as="geometry"/>
                </mxCell>
                <mxCell id="123" value="A" style="ellipse;whiteSpace=wrap;html=1;aspect=fixed;fillColor=none;" parent="1" vertex="1">
                    <mxGeometry x="480" y="640" width="40" height="40" as="geometry"/>
                </mxCell>
                <mxCell id="124" style="edgeStyle=none;html=1;exitX=0.5;exitY=1;exitDx=0;exitDy=0;entryX=1;entryY=0;entryDx=0;entryDy=0;" parent="1" source="126" target="134" edge="1">
                    <mxGeometry relative="1" as="geometry"/>
                </mxCell>
                <mxCell id="125" style="edgeStyle=none;html=1;exitX=0.5;exitY=1;exitDx=0;exitDy=0;entryX=0;entryY=0;entryDx=0;entryDy=0;" parent="1" source="126" target="142" edge="1">
                    <mxGeometry relative="1" as="geometry"/>
                </mxCell>
                <mxCell id="126" value="B" style="ellipse;whiteSpace=wrap;html=1;aspect=fixed;fillColor=none;" parent="1" vertex="1">
                    <mxGeometry x="560" y="640" width="40" height="40" as="geometry"/>
                </mxCell>
                <mxCell id="127" style="edgeStyle=none;html=1;exitX=0.5;exitY=1;exitDx=0;exitDy=0;entryX=1;entryY=0;entryDx=0;entryDy=0;" parent="1" source="129" target="139" edge="1">
                    <mxGeometry relative="1" as="geometry"/>
                </mxCell>
                <mxCell id="128" style="edgeStyle=none;html=1;exitX=0.5;exitY=1;exitDx=0;exitDy=0;entryX=0;entryY=0;entryDx=0;entryDy=0;" parent="1" source="129" target="136" edge="1">
                    <mxGeometry relative="1" as="geometry"/>
                </mxCell>
                <mxCell id="129" value="C" style="ellipse;whiteSpace=wrap;html=1;aspect=fixed;fillColor=none;" parent="1" vertex="1">
                    <mxGeometry x="640" y="640" width="40" height="40" as="geometry"/>
                </mxCell>
                <mxCell id="130" style="edgeStyle=none;html=1;exitX=0.5;exitY=1;exitDx=0;exitDy=0;entryX=1;entryY=0;entryDx=0;entryDy=0;" parent="1" source="132" target="142" edge="1">
                    <mxGeometry relative="1" as="geometry"/>
                </mxCell>
                <mxCell id="131" style="edgeStyle=none;html=1;exitX=0.5;exitY=1;exitDx=0;exitDy=0;entryX=1;entryY=0;entryDx=0;entryDy=0;" parent="1" source="132" target="136" edge="1">
                    <mxGeometry relative="1" as="geometry"/>
                </mxCell>
                <mxCell id="132" value="D" style="ellipse;whiteSpace=wrap;html=1;aspect=fixed;fillColor=none;" parent="1" vertex="1">
                    <mxGeometry x="720" y="640" width="40" height="40" as="geometry"/>
                </mxCell>
                <mxCell id="133" style="edgeStyle=none;html=1;exitX=0.5;exitY=1;exitDx=0;exitDy=0;entryX=0;entryY=0;entryDx=0;entryDy=0;" parent="1" source="134" target="144" edge="1">
                    <mxGeometry relative="1" as="geometry"/>
                </mxCell>
                <mxCell id="134" value="" style="shape=orEllipse;perimeter=ellipsePerimeter;whiteSpace=wrap;html=1;backgroundOutline=1;fillColor=#e1d5e7;strokeColor=#9673a6;" parent="1" vertex="1">
                    <mxGeometry x="520" y="720" width="40" height="40" as="geometry"/>
                </mxCell>
                <mxCell id="135" style="edgeStyle=none;html=1;exitX=0.5;exitY=1;exitDx=0;exitDy=0;entryX=1;entryY=0;entryDx=0;entryDy=0;" parent="1" source="136" target="144" edge="1">
                    <mxGeometry relative="1" as="geometry"/>
                </mxCell>
                <mxCell id="136" value="" style="shape=orEllipse;perimeter=ellipsePerimeter;whiteSpace=wrap;html=1;backgroundOutline=1;fillColor=none;" parent="1" vertex="1">
                    <mxGeometry x="680" y="720" width="40" height="40" as="geometry"/>
                </mxCell>
                <mxCell id="137" style="edgeStyle=none;html=1;exitX=0.5;exitY=1;exitDx=0;exitDy=0;entryX=0;entryY=0;entryDx=0;entryDy=0;" parent="1" source="139" target="146" edge="1">
                    <mxGeometry relative="1" as="geometry"/>
                </mxCell>
                <mxCell id="138" value="dsp3" style="edgeStyle=none;html=1;exitX=0.5;exitY=1;exitDx=0;exitDy=0;entryX=0.5;entryY=0;entryDx=0;entryDy=0;" parent="1" source="139" edge="1">
                    <mxGeometry relative="1" as="geometry">
                        <mxPoint x="579.9999999999998" y="1020" as="targetPoint"/>
                    </mxGeometry>
                </mxCell>
                <mxCell id="139" value="" style="shape=sumEllipse;perimeter=ellipsePerimeter;whiteSpace=wrap;html=1;backgroundOutline=1;fillColor=#f8cecc;strokeColor=#b85450;" parent="1" vertex="1">
                    <mxGeometry x="520" y="800" width="40" height="40" as="geometry"/>
                </mxCell>
                <mxCell id="140" style="edgeStyle=none;html=1;exitX=0.5;exitY=1;exitDx=0;exitDy=0;entryX=1;entryY=0;entryDx=0;entryDy=0;" parent="1" source="142" target="148" edge="1">
                    <mxGeometry relative="1" as="geometry"/>
                </mxCell>
                <mxCell id="141" value="dsp5" style="edgeStyle=none;html=1;exitX=0.5;exitY=1;exitDx=0;exitDy=0;entryX=0.543;entryY=0.05;entryDx=0;entryDy=0;entryPerimeter=0;" parent="1" source="142" edge="1">
                    <mxGeometry relative="1" as="geometry">
                        <mxPoint x="663.4399999999998" y="1101" as="targetPoint"/>
                    </mxGeometry>
                </mxCell>
                <mxCell id="142" value="" style="shape=sumEllipse;perimeter=ellipsePerimeter;whiteSpace=wrap;html=1;backgroundOutline=1;fillColor=#fff2cc;strokeColor=#d6b656;" parent="1" vertex="1">
                    <mxGeometry x="680" y="880" width="40" height="40" as="geometry"/>
                </mxCell>
                <mxCell id="143" value="dsp1" style="edgeStyle=none;html=1;exitX=0.5;exitY=1;exitDx=0;exitDy=0;entryX=0.5;entryY=0;entryDx=0;entryDy=0;" parent="1" source="144" target="146" edge="1">
                    <mxGeometry relative="1" as="geometry"/>
                </mxCell>
                <mxCell id="144" value="" style="shape=sumEllipse;perimeter=ellipsePerimeter;whiteSpace=wrap;html=1;backgroundOutline=1;fillColor=#e1d5e7;strokeColor=#9673a6;" parent="1" vertex="1">
                    <mxGeometry x="600" y="800" width="40" height="40" as="geometry"/>
                </mxCell>
                <mxCell id="145" value="dsp2" style="edgeStyle=none;html=1;exitX=0.5;exitY=1;exitDx=0;exitDy=0;entryX=0.5;entryY=0;entryDx=0;entryDy=0;" parent="1" source="146" target="148" edge="1">
                    <mxGeometry relative="1" as="geometry"/>
                </mxCell>
                <mxCell id="146" value="" style="shape=lineEllipse;perimeter=ellipsePerimeter;whiteSpace=wrap;html=1;backgroundOutline=1;fillColor=#f8cecc;strokeColor=#b85450;" parent="1" vertex="1">
                    <mxGeometry x="600" y="880" width="40" height="40" as="geometry"/>
                </mxCell>
                <mxCell id="147" value="dsp4" style="edgeStyle=none;html=1;exitX=0.5;exitY=1;exitDx=0;exitDy=0;entryX=0.5;entryY=0;entryDx=0;entryDy=0;" parent="1" source="148" edge="1">
                    <mxGeometry relative="1" as="geometry">
                        <mxPoint x="619.9999999999998" y="1060" as="targetPoint"/>
                    </mxGeometry>
                </mxCell>
                <mxCell id="148" value="" style="shape=lineEllipse;perimeter=ellipsePerimeter;whiteSpace=wrap;html=1;backgroundOutline=1;fillColor=#fff2cc;strokeColor=#d6b656;" parent="1" vertex="1">
                    <mxGeometry x="600" y="960" width="40" height="40" as="geometry"/>
                </mxCell>
                <mxCell id="149" value="bad&lt;br&gt;practice&lt;br&gt;which&lt;br&gt;costs&lt;br&gt;5 dsps" style="text;html=1;align=center;verticalAlign=middle;resizable=0;points=[];autosize=1;strokeColor=none;fillColor=none;" parent="1" vertex="1">
                    <mxGeometry x="470" y="850" width="60" height="80" as="geometry"/>
                </mxCell>
                <mxCell id="150" value="best&lt;br&gt;practice&lt;br&gt;which&lt;br&gt;costs&lt;br&gt;3 dsps" style="text;html=1;align=center;verticalAlign=middle;resizable=0;points=[];autosize=1;strokeColor=none;fillColor=none;" parent="1" vertex="1">
                    <mxGeometry x="40" y="850" width="60" height="80" as="geometry"/>
                </mxCell>
                <mxCell id="151" value="DSP0" style="rounded=0;whiteSpace=wrap;html=1;fillColor=#f8cecc;strokeColor=#b85450;" parent="1" vertex="1">
                    <mxGeometry x="40" y="960" width="40" height="20" as="geometry"/>
                </mxCell>
                <mxCell id="152" value="DSP1" style="rounded=0;whiteSpace=wrap;html=1;fillColor=#fff2cc;strokeColor=#d6b656;" parent="1" vertex="1">
                    <mxGeometry x="40" y="1000" width="40" height="20" as="geometry"/>
                </mxCell>
                <mxCell id="153" value="DSP2" style="rounded=0;whiteSpace=wrap;html=1;fillColor=#e1d5e7;strokeColor=#9673a6;" parent="1" vertex="1">
                    <mxGeometry x="40" y="1040" width="40" height="20" as="geometry"/>
                </mxCell>
                <mxCell id="154" value="" style="endArrow=classic;html=1;fontFamily=Helvetica;fontSize=11;fontColor=rgb(0, 0, 0);align=center;strokeColor=rgb(0, 0, 0);entryX=0;entryY=0.5;entryDx=0;entryDy=0;edgeStyle=orthogonalEdgeStyle;rounded=0;" parent="1" source="81" target="83" edge="1">
                    <mxGeometry relative="1" as="geometry">
                        <mxPoint x="660" y="440" as="sourcePoint"/>
                        <mxPoint x="660" y="500" as="targetPoint"/>
                        <Array as="points">
                            <mxPoint x="560" y="420"/>
                            <mxPoint x="560" y="530"/>
                        </Array>
                    </mxGeometry>
                </mxCell>
                <mxCell id="155" value="" style="shape=orEllipse;perimeter=ellipsePerimeter;whiteSpace=wrap;html=1;backgroundOutline=1;" parent="1" vertex="1">
                    <mxGeometry x="640" y="480" width="40" height="40" as="geometry"/>
                </mxCell>
                <mxCell id="156" value="" style="rounded=0;whiteSpace=wrap;html=1;strokeColor=#82b366;fillColor=none;dashed=1;" parent="1" vertex="1">
                    <mxGeometry x="580" y="460" width="120" height="80" as="geometry"/>
                </mxCell>
                <mxCell id="157" value="" style="shape=partialRectangle;whiteSpace=wrap;html=1;bottom=1;right=1;left=1;top=0;fillColor=none;routingCenterX=-0.5;dashed=1;rotation=-180;" parent="1" vertex="1">
                    <mxGeometry x="880" y="310" width="320" height="300" as="geometry"/>
                </mxCell>
                <mxCell id="158" value="" style="rounded=0;whiteSpace=wrap;html=1;dashed=1;fillColor=none;" parent="1" vertex="1">
                    <mxGeometry x="880" y="230" width="320" height="70" as="geometry"/>
                </mxCell>
                <mxCell id="159" value="" style="shape=partialRectangle;whiteSpace=wrap;html=1;bottom=1;right=1;left=1;top=0;fillColor=none;routingCenterX=-0.5;dashed=1;" parent="1" vertex="1">
                    <mxGeometry x="880" y="30" width="320" height="190" as="geometry"/>
                </mxCell>
                <mxCell id="160" style="edgeStyle=none;html=1;exitX=0.5;exitY=1;exitDx=0;exitDy=0;entryX=0;entryY=0;entryDx=0;entryDy=0;" parent="1" source="162" target="173" edge="1">
                    <mxGeometry relative="1" as="geometry"/>
                </mxCell>
                <mxCell id="161" style="edgeStyle=none;html=1;exitX=0.5;exitY=1;exitDx=0;exitDy=0;entryX=0;entryY=0;entryDx=0;entryDy=0;" parent="1" source="162" target="178" edge="1">
                    <mxGeometry relative="1" as="geometry"/>
                </mxCell>
                <mxCell id="162" value="A" style="ellipse;whiteSpace=wrap;html=1;aspect=fixed;fillColor=none;" parent="1" vertex="1">
                    <mxGeometry x="900" y="80" width="40" height="40" as="geometry"/>
                </mxCell>
                <mxCell id="163" style="edgeStyle=none;html=1;exitX=0.5;exitY=1;exitDx=0;exitDy=0;entryX=1;entryY=0;entryDx=0;entryDy=0;" parent="1" source="165" target="173" edge="1">
                    <mxGeometry relative="1" as="geometry"/>
                </mxCell>
                <mxCell id="164" style="edgeStyle=none;html=1;exitX=0.5;exitY=1;exitDx=0;exitDy=0;entryX=0;entryY=0;entryDx=0;entryDy=0;" parent="1" source="165" target="181" edge="1">
                    <mxGeometry relative="1" as="geometry"/>
                </mxCell>
                <mxCell id="165" value="B" style="ellipse;whiteSpace=wrap;html=1;aspect=fixed;fillColor=none;" parent="1" vertex="1">
                    <mxGeometry x="980" y="80" width="40" height="40" as="geometry"/>
                </mxCell>
                <mxCell id="166" style="edgeStyle=none;html=1;exitX=0.5;exitY=1;exitDx=0;exitDy=0;entryX=1;entryY=0;entryDx=0;entryDy=0;fillColor=#ffe6cc;strokeColor=#d79b00;" parent="1" source="168" target="178" edge="1">
                    <mxGeometry relative="1" as="geometry"/>
                </mxCell>
                <mxCell id="167" style="edgeStyle=none;html=1;exitX=0.5;exitY=1;exitDx=0;exitDy=0;entryX=0;entryY=0;entryDx=0;entryDy=0;fillColor=#ffe6cc;strokeColor=#d79b00;" parent="1" source="168" target="175" edge="1">
                    <mxGeometry relative="1" as="geometry"/>
                </mxCell>
                <mxCell id="168" value="C" style="ellipse;whiteSpace=wrap;html=1;aspect=fixed;fillColor=#ffe6cc;strokeColor=#d79b00;" parent="1" vertex="1">
                    <mxGeometry x="1060" y="80" width="40" height="40" as="geometry"/>
                </mxCell>
                <mxCell id="169" style="edgeStyle=none;html=1;exitX=0.5;exitY=1;exitDx=0;exitDy=0;entryX=1;entryY=0;entryDx=0;entryDy=0;fillColor=#ffe6cc;strokeColor=#d79b00;" parent="1" source="171" target="181" edge="1">
                    <mxGeometry relative="1" as="geometry"/>
                </mxCell>
                <mxCell id="170" style="edgeStyle=none;html=1;exitX=0.5;exitY=1;exitDx=0;exitDy=0;entryX=1;entryY=0;entryDx=0;entryDy=0;fillColor=#ffe6cc;strokeColor=#d79b00;" parent="1" source="171" target="175" edge="1">
                    <mxGeometry relative="1" as="geometry"/>
                </mxCell>
                <mxCell id="171" value="D" style="ellipse;whiteSpace=wrap;html=1;aspect=fixed;fillColor=#ffe6cc;strokeColor=#d79b00;" parent="1" vertex="1">
                    <mxGeometry x="1140" y="80" width="40" height="40" as="geometry"/>
                </mxCell>
                <mxCell id="172" style="edgeStyle=none;html=1;exitX=0.5;exitY=1;exitDx=0;exitDy=0;entryX=0;entryY=0;entryDx=0;entryDy=0;" parent="1" source="173" target="183" edge="1">
                    <mxGeometry relative="1" as="geometry"/>
                </mxCell>
                <mxCell id="173" value="" style="shape=orEllipse;perimeter=ellipsePerimeter;whiteSpace=wrap;html=1;backgroundOutline=1;" parent="1" vertex="1">
                    <mxGeometry x="940" y="160" width="40" height="40" as="geometry"/>
                </mxCell>
                <mxCell id="174" style="edgeStyle=none;html=1;exitX=0.5;exitY=1;exitDx=0;exitDy=0;entryX=1;entryY=0;entryDx=0;entryDy=0;fillColor=#ffe6cc;strokeColor=#d79b00;" parent="1" source="175" target="183" edge="1">
                    <mxGeometry relative="1" as="geometry"/>
                </mxCell>
                <mxCell id="175" value="" style="shape=orEllipse;perimeter=ellipsePerimeter;whiteSpace=wrap;html=1;backgroundOutline=1;fillColor=#ffe6cc;strokeColor=#d79b00;" parent="1" vertex="1">
                    <mxGeometry x="1100" y="160" width="40" height="40" as="geometry"/>
                </mxCell>
                <mxCell id="176" style="edgeStyle=none;html=1;exitX=0.5;exitY=1;exitDx=0;exitDy=0;entryX=0;entryY=0;entryDx=0;entryDy=0;" parent="1" source="178" target="185" edge="1">
                    <mxGeometry relative="1" as="geometry"/>
                </mxCell>
                <mxCell id="177" style="edgeStyle=none;html=1;exitX=0.5;exitY=1;exitDx=0;exitDy=0;entryX=0.5;entryY=0;entryDx=0;entryDy=0;" parent="1" source="178" target="188" edge="1">
                    <mxGeometry relative="1" as="geometry"/>
                </mxCell>
                <mxCell id="178" value="" style="shape=sumEllipse;perimeter=ellipsePerimeter;whiteSpace=wrap;html=1;backgroundOutline=1;fillColor=#fff2cc;strokeColor=#d6b656;" parent="1" vertex="1">
                    <mxGeometry x="940" y="240" width="40" height="40" as="geometry"/>
                </mxCell>
                <mxCell id="179" style="edgeStyle=none;html=1;exitX=0.5;exitY=1;exitDx=0;exitDy=0;entryX=1;entryY=0;entryDx=0;entryDy=0;" parent="1" source="181" target="187" edge="1">
                    <mxGeometry relative="1" as="geometry"/>
                </mxCell>
                <mxCell id="180" style="edgeStyle=none;html=1;exitX=0.5;exitY=1;exitDx=0;exitDy=0;entryX=0.543;entryY=0.05;entryDx=0;entryDy=0;entryPerimeter=0;" parent="1" source="181" target="190" edge="1">
                    <mxGeometry relative="1" as="geometry"/>
                </mxCell>
                <mxCell id="181" value="" style="shape=sumEllipse;perimeter=ellipsePerimeter;whiteSpace=wrap;html=1;backgroundOutline=1;fillColor=#fff2cc;strokeColor=#d6b656;" parent="1" vertex="1">
                    <mxGeometry x="1100" y="240" width="40" height="40" as="geometry"/>
                </mxCell>
                <mxCell id="182" style="edgeStyle=none;html=1;exitX=0.5;exitY=1;exitDx=0;exitDy=0;entryX=0.5;entryY=0;entryDx=0;entryDy=0;" parent="1" source="183" target="185" edge="1">
                    <mxGeometry relative="1" as="geometry"/>
                </mxCell>
                <mxCell id="183" value="" style="shape=sumEllipse;perimeter=ellipsePerimeter;whiteSpace=wrap;html=1;backgroundOutline=1;fillColor=#fff2cc;strokeColor=#d6b656;" parent="1" vertex="1">
                    <mxGeometry x="1020" y="240" width="40" height="40" as="geometry"/>
                </mxCell>
                <mxCell id="184" style="edgeStyle=none;html=1;exitX=0.5;exitY=1;exitDx=0;exitDy=0;entryX=0.5;entryY=0;entryDx=0;entryDy=0;" parent="1" source="185" target="187" edge="1">
                    <mxGeometry relative="1" as="geometry"/>
                </mxCell>
                <mxCell id="185" value="" style="shape=lineEllipse;perimeter=ellipsePerimeter;whiteSpace=wrap;html=1;backgroundOutline=1;" parent="1" vertex="1">
                    <mxGeometry x="1020" y="320" width="40" height="40" as="geometry"/>
                </mxCell>
                <mxCell id="186" style="edgeStyle=orthogonalEdgeStyle;rounded=0;html=1;exitX=0.5;exitY=1;exitDx=0;exitDy=0;entryX=0.5;entryY=0;entryDx=0;entryDy=0;" parent="1" source="187" target="189" edge="1">
                    <mxGeometry relative="1" as="geometry"/>
                </mxCell>
                <mxCell id="187" value="" style="shape=lineEllipse;perimeter=ellipsePerimeter;whiteSpace=wrap;html=1;backgroundOutline=1;" parent="1" vertex="1">
                    <mxGeometry x="1020" y="400" width="40" height="40" as="geometry"/>
                </mxCell>
                <mxCell id="188" value="" style="rounded=0;whiteSpace=wrap;html=1;" parent="1" vertex="1">
                    <mxGeometry x="960" y="460" width="80" height="20" as="geometry"/>
                </mxCell>
                <mxCell id="189" value="" style="rounded=0;whiteSpace=wrap;html=1;" parent="1" vertex="1">
                    <mxGeometry x="1000" y="500" width="80" height="20" as="geometry"/>
                </mxCell>
                <mxCell id="190" value="" style="rounded=0;whiteSpace=wrap;html=1;" parent="1" vertex="1">
                    <mxGeometry x="1040" y="540" width="80" height="20" as="geometry"/>
                </mxCell>
                <mxCell id="191" value="" style="endArrow=none;html=1;strokeWidth=2;rounded=0;fillColor=#f5f5f5;strokeColor=#666666;" parent="1" edge="1">
                    <mxGeometry width="50" height="50" relative="1" as="geometry">
                        <mxPoint x="880" y="209" as="sourcePoint"/>
                        <mxPoint x="1200" y="209.43000000000006" as="targetPoint"/>
                    </mxGeometry>
                </mxCell>
                <mxCell id="192" value="" style="endArrow=none;html=1;strokeWidth=2;rounded=0;fillColor=#f5f5f5;strokeColor=#666666;exitX=0;exitY=0.852;exitDx=0;exitDy=0;exitPerimeter=0;" parent="1" source="158" edge="1">
                    <mxGeometry width="50" height="50" relative="1" as="geometry">
                        <mxPoint x="890" y="289" as="sourcePoint"/>
                        <mxPoint x="1200" y="289.43000000000006" as="targetPoint"/>
                    </mxGeometry>
                </mxCell>
                <mxCell id="193" value="" style="endArrow=none;html=1;strokeWidth=2;rounded=0;fillColor=#f5f5f5;strokeColor=#666666;" parent="1" edge="1">
                    <mxGeometry width="50" height="50" relative="1" as="geometry">
                        <mxPoint x="880" y="380" as="sourcePoint"/>
                        <mxPoint x="1200" y="379.71000000000004" as="targetPoint"/>
                    </mxGeometry>
                </mxCell>
                <mxCell id="194" value="" style="endArrow=none;html=1;strokeWidth=2;rounded=0;fillColor=#f5f5f5;strokeColor=#666666;" parent="1" edge="1">
                    <mxGeometry width="50" height="50" relative="1" as="geometry">
                        <mxPoint x="880" y="450" as="sourcePoint"/>
                        <mxPoint x="1200" y="450" as="targetPoint"/>
                    </mxGeometry>
                </mxCell>
                <mxCell id="195" value="" style="endArrow=none;html=1;strokeWidth=2;rounded=0;fillColor=#f5f5f5;strokeColor=#666666;" parent="1" edge="1">
                    <mxGeometry width="50" height="50" relative="1" as="geometry">
                        <mxPoint x="880" y="139.43000000000006" as="sourcePoint"/>
                        <mxPoint x="1200" y="139.86000000000013" as="targetPoint"/>
                    </mxGeometry>
                </mxCell>
                <mxCell id="196" value="" style="shape=orEllipse;perimeter=ellipsePerimeter;whiteSpace=wrap;html=1;backgroundOutline=1;" parent="1" vertex="1">
                    <mxGeometry x="1010" y="480" width="20" height="20" as="geometry"/>
                </mxCell>
                <mxCell id="197" value="" style="shape=orEllipse;perimeter=ellipsePerimeter;whiteSpace=wrap;html=1;backgroundOutline=1;" parent="1" vertex="1">
                    <mxGeometry x="1050" y="520" width="20" height="20" as="geometry"/>
                </mxCell>
                <mxCell id="198" value="" style="rounded=0;whiteSpace=wrap;html=1;strokeColor=#d79b00;fillColor=#ffe6cc;" parent="1" vertex="1">
                    <mxGeometry x="520" y="30" width="40" height="20" as="geometry"/>
                </mxCell>
                <mxCell id="199" value="constant" style="text;html=1;align=center;verticalAlign=middle;resizable=0;points=[];autosize=1;strokeColor=none;fillColor=none;" parent="1" vertex="1">
                    <mxGeometry x="560" y="30" width="60" height="20" as="geometry"/>
                </mxCell>
                <mxCell id="200" value="" style="rounded=0;whiteSpace=wrap;html=1;fillColor=#fff2cc;strokeColor=#d6b656;" parent="1" vertex="1">
                    <mxGeometry x="680" y="30" width="40" height="20" as="geometry"/>
                </mxCell>
                <mxCell id="201" value="full" style="text;html=1;align=center;verticalAlign=middle;resizable=0;points=[];autosize=1;strokeColor=none;fillColor=none;" parent="1" vertex="1">
                    <mxGeometry x="725" y="30" width="30" height="20" as="geometry"/>
                </mxCell>
                <mxCell id="202" value="" style="rounded=0;whiteSpace=wrap;html=1;" parent="1" vertex="1">
                    <mxGeometry x="140.03" y="1100" width="80" height="20" as="geometry"/>
                </mxCell>
                <mxCell id="203" value="" style="rounded=0;whiteSpace=wrap;html=1;" parent="1" vertex="1">
                    <mxGeometry x="180.03" y="1160" width="80" height="20" as="geometry"/>
                </mxCell>
                <mxCell id="204" value="" style="rounded=0;whiteSpace=wrap;html=1;" parent="1" vertex="1">
                    <mxGeometry x="220.03" y="1100" width="80" height="20" as="geometry"/>
                </mxCell>
                <mxCell id="205" value="" style="shape=orEllipse;perimeter=ellipsePerimeter;whiteSpace=wrap;html=1;backgroundOutline=1;" parent="1" vertex="1">
                    <mxGeometry x="200.03" y="1120" width="40" height="40" as="geometry"/>
                </mxCell>
                <mxCell id="206" value="" style="rounded=0;whiteSpace=wrap;html=1;strokeColor=#82b366;fillColor=none;dashed=1;" parent="1" vertex="1">
                    <mxGeometry x="140.03" y="1100" width="120" height="80" as="geometry"/>
                </mxCell>
            </root>
        </mxGraphModel>
    </diagram>
    <diagram id="4xS0RodiPTE5vsFA6Kfs" name="dsp-low">
        <mxGraphModel dx="1706" dy="879" grid="1" gridSize="10" guides="1" tooltips="1" connect="1" arrows="1" fold="1" page="1" pageScale="1" pageWidth="827" pageHeight="1169" math="0" shadow="0">
            <root>
                <mxCell id="vyHXcFt4tAlE9tNFwshi-0"/>
                <mxCell id="vyHXcFt4tAlE9tNFwshi-1" parent="vyHXcFt4tAlE9tNFwshi-0"/>
                <mxCell id="vyHXcFt4tAlE9tNFwshi-2" value="" style="shape=parallelogram;perimeter=parallelogramPerimeter;whiteSpace=wrap;html=1;fixedSize=1;size=80;fillColor=#d5e8d4;strokeColor=#82b366;" parent="vyHXcFt4tAlE9tNFwshi-1" vertex="1">
                    <mxGeometry x="150" y="210" width="160" height="80" as="geometry"/>
                </mxCell>
                <mxCell id="vyHXcFt4tAlE9tNFwshi-3" value="" style="shape=parallelogram;perimeter=parallelogramPerimeter;whiteSpace=wrap;html=1;fixedSize=1;size=80;fillColor=#dae8fc;strokeColor=#6c8ebf;" parent="vyHXcFt4tAlE9tNFwshi-1" vertex="1">
                    <mxGeometry x="150" y="130" width="160" height="80" as="geometry"/>
                </mxCell>
                <mxCell id="vyHXcFt4tAlE9tNFwshi-4" value="" style="shape=parallelogram;perimeter=parallelogramPerimeter;whiteSpace=wrap;html=1;fixedSize=1;size=80;fillColor=#ffe6cc;strokeColor=#d79b00;" parent="vyHXcFt4tAlE9tNFwshi-1" vertex="1">
                    <mxGeometry x="230" y="130" width="160" height="80" as="geometry"/>
                </mxCell>
                <mxCell id="vyHXcFt4tAlE9tNFwshi-5" value="" style="endArrow=none;html=1;" parent="vyHXcFt4tAlE9tNFwshi-1" edge="1">
                    <mxGeometry width="50" height="50" relative="1" as="geometry">
                        <mxPoint x="160" y="120" as="sourcePoint"/>
                        <mxPoint x="360" y="120" as="targetPoint"/>
                    </mxGeometry>
                </mxCell>
                <mxCell id="vyHXcFt4tAlE9tNFwshi-6" value="" style="endArrow=none;html=1;" parent="vyHXcFt4tAlE9tNFwshi-1" edge="1">
                    <mxGeometry width="50" height="50" relative="1" as="geometry">
                        <mxPoint x="160" y="100" as="sourcePoint"/>
                        <mxPoint x="180" y="80" as="targetPoint"/>
                    </mxGeometry>
                </mxCell>
                <mxCell id="vyHXcFt4tAlE9tNFwshi-7" value="" style="endArrow=none;html=1;" parent="vyHXcFt4tAlE9tNFwshi-1" edge="1">
                    <mxGeometry width="50" height="50" relative="1" as="geometry">
                        <mxPoint x="160" y="80" as="sourcePoint"/>
                        <mxPoint x="180" y="100" as="targetPoint"/>
                    </mxGeometry>
                </mxCell>
                <mxCell id="vyHXcFt4tAlE9tNFwshi-8" value="" style="ellipse;whiteSpace=wrap;html=1;aspect=fixed;" parent="vyHXcFt4tAlE9tNFwshi-1" vertex="1">
                    <mxGeometry x="220" y="140" width="20" height="20" as="geometry"/>
                </mxCell>
                <mxCell id="vyHXcFt4tAlE9tNFwshi-9" value="" style="ellipse;whiteSpace=wrap;html=1;aspect=fixed;" parent="vyHXcFt4tAlE9tNFwshi-1" vertex="1">
                    <mxGeometry x="260" y="140" width="20" height="20" as="geometry"/>
                </mxCell>
                <mxCell id="vyHXcFt4tAlE9tNFwshi-10" value="" style="ellipse;whiteSpace=wrap;html=1;aspect=fixed;" parent="vyHXcFt4tAlE9tNFwshi-1" vertex="1">
                    <mxGeometry x="300" y="140" width="20" height="20" as="geometry"/>
                </mxCell>
                <mxCell id="vyHXcFt4tAlE9tNFwshi-11" value="" style="ellipse;whiteSpace=wrap;html=1;aspect=fixed;" parent="vyHXcFt4tAlE9tNFwshi-1" vertex="1">
                    <mxGeometry x="340" y="140" width="20" height="20" as="geometry"/>
                </mxCell>
                <mxCell id="vyHXcFt4tAlE9tNFwshi-12" value="" style="ellipse;whiteSpace=wrap;html=1;aspect=fixed;" parent="vyHXcFt4tAlE9tNFwshi-1" vertex="1">
                    <mxGeometry x="180" y="180" width="20" height="20" as="geometry"/>
                </mxCell>
                <mxCell id="vyHXcFt4tAlE9tNFwshi-13" value="" style="ellipse;whiteSpace=wrap;html=1;aspect=fixed;" parent="vyHXcFt4tAlE9tNFwshi-1" vertex="1">
                    <mxGeometry x="220" y="180" width="20" height="20" as="geometry"/>
                </mxCell>
                <mxCell id="vyHXcFt4tAlE9tNFwshi-14" value="" style="ellipse;whiteSpace=wrap;html=1;aspect=fixed;" parent="vyHXcFt4tAlE9tNFwshi-1" vertex="1">
                    <mxGeometry x="260" y="180" width="20" height="20" as="geometry"/>
                </mxCell>
                <mxCell id="vyHXcFt4tAlE9tNFwshi-15" value="" style="ellipse;whiteSpace=wrap;html=1;aspect=fixed;" parent="vyHXcFt4tAlE9tNFwshi-1" vertex="1">
                    <mxGeometry x="300" y="180" width="20" height="20" as="geometry"/>
                </mxCell>
                <mxCell id="vyHXcFt4tAlE9tNFwshi-16" value="" style="ellipse;whiteSpace=wrap;html=1;aspect=fixed;" parent="vyHXcFt4tAlE9tNFwshi-1" vertex="1">
                    <mxGeometry x="140" y="220" width="20" height="20" as="geometry"/>
                </mxCell>
                <mxCell id="vyHXcFt4tAlE9tNFwshi-17" value="" style="ellipse;whiteSpace=wrap;html=1;aspect=fixed;" parent="vyHXcFt4tAlE9tNFwshi-1" vertex="1">
                    <mxGeometry x="180" y="220" width="20" height="20" as="geometry"/>
                </mxCell>
                <mxCell id="vyHXcFt4tAlE9tNFwshi-18" value="" style="ellipse;whiteSpace=wrap;html=1;aspect=fixed;" parent="vyHXcFt4tAlE9tNFwshi-1" vertex="1">
                    <mxGeometry x="220" y="220" width="20" height="20" as="geometry"/>
                </mxCell>
                <mxCell id="vyHXcFt4tAlE9tNFwshi-19" value="" style="ellipse;whiteSpace=wrap;html=1;aspect=fixed;" parent="vyHXcFt4tAlE9tNFwshi-1" vertex="1">
                    <mxGeometry x="260" y="220" width="20" height="20" as="geometry"/>
                </mxCell>
                <mxCell id="vyHXcFt4tAlE9tNFwshi-20" value="" style="ellipse;whiteSpace=wrap;html=1;aspect=fixed;" parent="vyHXcFt4tAlE9tNFwshi-1" vertex="1">
                    <mxGeometry x="100" y="260" width="20" height="20" as="geometry"/>
                </mxCell>
                <mxCell id="vyHXcFt4tAlE9tNFwshi-21" value="" style="ellipse;whiteSpace=wrap;html=1;aspect=fixed;" parent="vyHXcFt4tAlE9tNFwshi-1" vertex="1">
                    <mxGeometry x="140" y="260" width="20" height="20" as="geometry"/>
                </mxCell>
                <mxCell id="vyHXcFt4tAlE9tNFwshi-22" value="" style="ellipse;whiteSpace=wrap;html=1;aspect=fixed;" parent="vyHXcFt4tAlE9tNFwshi-1" vertex="1">
                    <mxGeometry x="180" y="260" width="20" height="20" as="geometry"/>
                </mxCell>
                <mxCell id="vyHXcFt4tAlE9tNFwshi-23" value="" style="ellipse;whiteSpace=wrap;html=1;aspect=fixed;" parent="vyHXcFt4tAlE9tNFwshi-1" vertex="1">
                    <mxGeometry x="220" y="260" width="20" height="20" as="geometry"/>
                </mxCell>
                <mxCell id="vyHXcFt4tAlE9tNFwshi-24" value="" style="endArrow=none;html=1;" parent="vyHXcFt4tAlE9tNFwshi-1" edge="1">
                    <mxGeometry width="50" height="50" relative="1" as="geometry">
                        <mxPoint x="40" y="300" as="sourcePoint"/>
                        <mxPoint x="360" y="300" as="targetPoint"/>
                    </mxGeometry>
                </mxCell>
                <mxCell id="vyHXcFt4tAlE9tNFwshi-25" value="" style="ellipse;whiteSpace=wrap;html=1;aspect=fixed;" parent="vyHXcFt4tAlE9tNFwshi-1" vertex="1">
                    <mxGeometry x="220" y="320" width="20" height="20" as="geometry"/>
                </mxCell>
                <mxCell id="vyHXcFt4tAlE9tNFwshi-26" value="" style="ellipse;whiteSpace=wrap;html=1;aspect=fixed;" parent="vyHXcFt4tAlE9tNFwshi-1" vertex="1">
                    <mxGeometry x="260" y="320" width="20" height="20" as="geometry"/>
                </mxCell>
                <mxCell id="vyHXcFt4tAlE9tNFwshi-27" value="" style="ellipse;whiteSpace=wrap;html=1;aspect=fixed;" parent="vyHXcFt4tAlE9tNFwshi-1" vertex="1">
                    <mxGeometry x="300" y="320" width="20" height="20" as="geometry"/>
                </mxCell>
                <mxCell id="vyHXcFt4tAlE9tNFwshi-28" value="" style="ellipse;whiteSpace=wrap;html=1;aspect=fixed;" parent="vyHXcFt4tAlE9tNFwshi-1" vertex="1">
                    <mxGeometry x="340" y="320" width="20" height="20" as="geometry"/>
                </mxCell>
                <mxCell id="vyHXcFt4tAlE9tNFwshi-29" value="" style="ellipse;whiteSpace=wrap;html=1;aspect=fixed;" parent="vyHXcFt4tAlE9tNFwshi-1" vertex="1">
                    <mxGeometry x="60" y="320" width="20" height="20" as="geometry"/>
                </mxCell>
                <mxCell id="vyHXcFt4tAlE9tNFwshi-30" value="" style="ellipse;whiteSpace=wrap;html=1;aspect=fixed;" parent="vyHXcFt4tAlE9tNFwshi-1" vertex="1">
                    <mxGeometry x="100" y="320" width="20" height="20" as="geometry"/>
                </mxCell>
                <mxCell id="vyHXcFt4tAlE9tNFwshi-31" value="" style="ellipse;whiteSpace=wrap;html=1;aspect=fixed;" parent="vyHXcFt4tAlE9tNFwshi-1" vertex="1">
                    <mxGeometry x="140" y="320" width="20" height="20" as="geometry"/>
                </mxCell>
                <mxCell id="vyHXcFt4tAlE9tNFwshi-32" value="" style="ellipse;whiteSpace=wrap;html=1;aspect=fixed;" parent="vyHXcFt4tAlE9tNFwshi-1" vertex="1">
                    <mxGeometry x="180" y="320" width="20" height="20" as="geometry"/>
                </mxCell>
                <mxCell id="vyHXcFt4tAlE9tNFwshi-33" value="carry" style="text;html=1;align=center;verticalAlign=middle;resizable=0;points=[];autosize=1;strokeColor=none;fillColor=none;" parent="vyHXcFt4tAlE9tNFwshi-1" vertex="1">
                    <mxGeometry x="50" y="340" width="40" height="20" as="geometry"/>
                </mxCell>
                <mxCell id="vyHXcFt4tAlE9tNFwshi-34" value="low-bits" style="text;html=1;align=center;verticalAlign=middle;resizable=0;points=[];autosize=1;strokeColor=none;fillColor=none;" parent="vyHXcFt4tAlE9tNFwshi-1" vertex="1">
                    <mxGeometry x="90" y="370" width="60" height="20" as="geometry"/>
                </mxCell>
                <mxCell id="vyHXcFt4tAlE9tNFwshi-35" value="" style="rounded=0;whiteSpace=wrap;html=1;fillColor=#ffe6cc;strokeColor=#d79b00;" parent="vyHXcFt4tAlE9tNFwshi-1" vertex="1">
                    <mxGeometry x="160" y="370" width="40" height="20" as="geometry"/>
                </mxCell>
                <mxCell id="vyHXcFt4tAlE9tNFwshi-36" value="+" style="text;html=1;align=center;verticalAlign=middle;resizable=0;points=[];autosize=1;strokeColor=none;fillColor=none;" parent="vyHXcFt4tAlE9tNFwshi-1" vertex="1">
                    <mxGeometry x="200" y="370" width="20" height="20" as="geometry"/>
                </mxCell>
                <mxCell id="vyHXcFt4tAlE9tNFwshi-37" value="" style="rounded=0;whiteSpace=wrap;html=1;fillColor=#dae8fc;strokeColor=#6c8ebf;" parent="vyHXcFt4tAlE9tNFwshi-1" vertex="1">
                    <mxGeometry x="220" y="370" width="40" height="20" as="geometry"/>
                </mxCell>
                <mxCell id="vyHXcFt4tAlE9tNFwshi-38" value="+" style="text;html=1;align=center;verticalAlign=middle;resizable=0;points=[];autosize=1;strokeColor=none;fillColor=none;" parent="vyHXcFt4tAlE9tNFwshi-1" vertex="1">
                    <mxGeometry x="260" y="370" width="20" height="20" as="geometry"/>
                </mxCell>
                <mxCell id="vyHXcFt4tAlE9tNFwshi-39" value="" style="rounded=0;whiteSpace=wrap;html=1;fillColor=#d5e8d4;strokeColor=#82b366;" parent="vyHXcFt4tAlE9tNFwshi-1" vertex="1">
                    <mxGeometry x="280" y="370" width="40" height="20" as="geometry"/>
                </mxCell>
                <mxCell id="vyHXcFt4tAlE9tNFwshi-40" value="" style="endArrow=none;dashed=1;html=1;dashPattern=1 3;strokeWidth=2;" parent="vyHXcFt4tAlE9tNFwshi-1" edge="1">
                    <mxGeometry width="50" height="50" relative="1" as="geometry">
                        <mxPoint x="209.66000000000008" y="360" as="sourcePoint"/>
                        <mxPoint x="209.66000000000008" y="40" as="targetPoint"/>
                    </mxGeometry>
                </mxCell>
                <mxCell id="vyHXcFt4tAlE9tNFwshi-41" value="" style="ellipse;whiteSpace=wrap;html=1;aspect=fixed;" parent="vyHXcFt4tAlE9tNFwshi-1" vertex="1">
                    <mxGeometry x="230" y="50" width="20" height="20" as="geometry"/>
                </mxCell>
                <mxCell id="vyHXcFt4tAlE9tNFwshi-42" value="" style="ellipse;whiteSpace=wrap;html=1;aspect=fixed;" parent="vyHXcFt4tAlE9tNFwshi-1" vertex="1">
                    <mxGeometry x="270" y="50" width="20" height="20" as="geometry"/>
                </mxCell>
                <mxCell id="vyHXcFt4tAlE9tNFwshi-43" value="" style="ellipse;whiteSpace=wrap;html=1;aspect=fixed;" parent="vyHXcFt4tAlE9tNFwshi-1" vertex="1">
                    <mxGeometry x="310" y="50" width="20" height="20" as="geometry"/>
                </mxCell>
                <mxCell id="vyHXcFt4tAlE9tNFwshi-44" value="" style="ellipse;whiteSpace=wrap;html=1;aspect=fixed;" parent="vyHXcFt4tAlE9tNFwshi-1" vertex="1">
                    <mxGeometry x="350" y="50" width="20" height="20" as="geometry"/>
                </mxCell>
                <mxCell id="vyHXcFt4tAlE9tNFwshi-45" value="" style="ellipse;whiteSpace=wrap;html=1;aspect=fixed;" parent="vyHXcFt4tAlE9tNFwshi-1" vertex="1">
                    <mxGeometry x="230" y="90" width="20" height="20" as="geometry"/>
                </mxCell>
                <mxCell id="vyHXcFt4tAlE9tNFwshi-46" value="" style="ellipse;whiteSpace=wrap;html=1;aspect=fixed;" parent="vyHXcFt4tAlE9tNFwshi-1" vertex="1">
                    <mxGeometry x="270" y="90" width="20" height="20" as="geometry"/>
                </mxCell>
                <mxCell id="vyHXcFt4tAlE9tNFwshi-47" value="" style="ellipse;whiteSpace=wrap;html=1;aspect=fixed;" parent="vyHXcFt4tAlE9tNFwshi-1" vertex="1">
                    <mxGeometry x="310" y="90" width="20" height="20" as="geometry"/>
                </mxCell>
                <mxCell id="vyHXcFt4tAlE9tNFwshi-48" value="" style="ellipse;whiteSpace=wrap;html=1;aspect=fixed;" parent="vyHXcFt4tAlE9tNFwshi-1" vertex="1">
                    <mxGeometry x="350" y="90" width="20" height="20" as="geometry"/>
                </mxCell>
                <mxCell id="vyHXcFt4tAlE9tNFwshi-49" value="A" style="rounded=0;whiteSpace=wrap;html=1;fillColor=none;" parent="vyHXcFt4tAlE9tNFwshi-1" vertex="1">
                    <mxGeometry x="220" y="50" width="80" height="20" as="geometry"/>
                </mxCell>
                <mxCell id="vyHXcFt4tAlE9tNFwshi-50" value="B" style="rounded=0;whiteSpace=wrap;html=1;fillColor=none;" parent="vyHXcFt4tAlE9tNFwshi-1" vertex="1">
                    <mxGeometry x="300" y="50" width="80" height="20" as="geometry"/>
                </mxCell>
                <mxCell id="vyHXcFt4tAlE9tNFwshi-51" value="C" style="rounded=0;whiteSpace=wrap;html=1;fillColor=none;" parent="vyHXcFt4tAlE9tNFwshi-1" vertex="1">
                    <mxGeometry x="220" y="90" width="80" height="20" as="geometry"/>
                </mxCell>
                <mxCell id="vyHXcFt4tAlE9tNFwshi-52" value="D" style="rounded=0;whiteSpace=wrap;html=1;fillColor=none;" parent="vyHXcFt4tAlE9tNFwshi-1" vertex="1">
                    <mxGeometry x="300" y="90" width="80" height="20" as="geometry"/>
                </mxCell>
                <mxCell id="vyHXcFt4tAlE9tNFwshi-53" style="edgeStyle=none;html=1;exitX=0.5;exitY=1;exitDx=0;exitDy=0;entryX=0;entryY=0;entryDx=0;entryDy=0;" parent="vyHXcFt4tAlE9tNFwshi-1" source="vyHXcFt4tAlE9tNFwshi-54" target="vyHXcFt4tAlE9tNFwshi-64" edge="1">
                    <mxGeometry relative="1" as="geometry"/>
                </mxCell>
                <mxCell id="vyHXcFt4tAlE9tNFwshi-54" value="A" style="ellipse;whiteSpace=wrap;html=1;aspect=fixed;fillColor=none;" parent="vyHXcFt4tAlE9tNFwshi-1" vertex="1">
                    <mxGeometry x="520" y="80" width="40" height="40" as="geometry"/>
                </mxCell>
                <mxCell id="vyHXcFt4tAlE9tNFwshi-55" style="edgeStyle=none;html=1;exitX=0.5;exitY=1;exitDx=0;exitDy=0;entryX=0;entryY=0;entryDx=0;entryDy=0;" parent="vyHXcFt4tAlE9tNFwshi-1" source="vyHXcFt4tAlE9tNFwshi-56" target="vyHXcFt4tAlE9tNFwshi-66" edge="1">
                    <mxGeometry relative="1" as="geometry"/>
                </mxCell>
                <mxCell id="vyHXcFt4tAlE9tNFwshi-56" value="D" style="ellipse;whiteSpace=wrap;html=1;aspect=fixed;fillColor=none;" parent="vyHXcFt4tAlE9tNFwshi-1" vertex="1">
                    <mxGeometry x="600" y="80" width="40" height="40" as="geometry"/>
                </mxCell>
                <mxCell id="vyHXcFt4tAlE9tNFwshi-57" style="edgeStyle=none;html=1;exitX=0.5;exitY=1;exitDx=0;exitDy=0;entryX=1;entryY=0;entryDx=0;entryDy=0;" parent="vyHXcFt4tAlE9tNFwshi-1" source="vyHXcFt4tAlE9tNFwshi-56" target="vyHXcFt4tAlE9tNFwshi-64" edge="1">
                    <mxGeometry relative="1" as="geometry"/>
                </mxCell>
                <mxCell id="vyHXcFt4tAlE9tNFwshi-58" value="C" style="ellipse;whiteSpace=wrap;html=1;aspect=fixed;fillColor=none;" parent="vyHXcFt4tAlE9tNFwshi-1" vertex="1">
                    <mxGeometry x="680" y="80" width="40" height="40" as="geometry"/>
                </mxCell>
                <mxCell id="vyHXcFt4tAlE9tNFwshi-59" style="edgeStyle=none;html=1;exitX=0.5;exitY=1;exitDx=0;exitDy=0;entryX=1;entryY=0;entryDx=0;entryDy=0;" parent="vyHXcFt4tAlE9tNFwshi-1" source="vyHXcFt4tAlE9tNFwshi-60" target="vyHXcFt4tAlE9tNFwshi-66" edge="1">
                    <mxGeometry relative="1" as="geometry"/>
                </mxCell>
                <mxCell id="vyHXcFt4tAlE9tNFwshi-60" value="B" style="ellipse;whiteSpace=wrap;html=1;aspect=fixed;fillColor=none;" parent="vyHXcFt4tAlE9tNFwshi-1" vertex="1">
                    <mxGeometry x="760" y="80" width="40" height="40" as="geometry"/>
                </mxCell>
                <mxCell id="vyHXcFt4tAlE9tNFwshi-61" style="edgeStyle=none;html=1;exitX=0.5;exitY=1;exitDx=0;exitDy=0;entryX=0;entryY=0;entryDx=0;entryDy=0;" parent="vyHXcFt4tAlE9tNFwshi-1" source="vyHXcFt4tAlE9tNFwshi-58" target="vyHXcFt4tAlE9tNFwshi-68" edge="1">
                    <mxGeometry relative="1" as="geometry">
                        <mxPoint x="580.0000000000002" y="120" as="sourcePoint"/>
                    </mxGeometry>
                </mxCell>
                <mxCell id="vyHXcFt4tAlE9tNFwshi-62" style="edgeStyle=none;html=1;exitX=0.5;exitY=1;exitDx=0;exitDy=0;entryX=1;entryY=0;entryDx=0;entryDy=0;" parent="vyHXcFt4tAlE9tNFwshi-1" source="vyHXcFt4tAlE9tNFwshi-60" target="vyHXcFt4tAlE9tNFwshi-68" edge="1">
                    <mxGeometry relative="1" as="geometry">
                        <mxPoint x="740.0000000000002" y="120" as="sourcePoint"/>
                    </mxGeometry>
                </mxCell>
                <mxCell id="vyHXcFt4tAlE9tNFwshi-63" style="edgeStyle=orthogonalEdgeStyle;html=1;exitX=0.5;exitY=1;exitDx=0;exitDy=0;entryX=0.25;entryY=0;entryDx=0;entryDy=0;rounded=0;" parent="vyHXcFt4tAlE9tNFwshi-1" source="vyHXcFt4tAlE9tNFwshi-64" target="vyHXcFt4tAlE9tNFwshi-69" edge="1">
                    <mxGeometry relative="1" as="geometry">
                        <mxPoint x="580" y="180" as="sourcePoint"/>
                    </mxGeometry>
                </mxCell>
                <mxCell id="vyHXcFt4tAlE9tNFwshi-64" value="" style="shape=sumEllipse;perimeter=ellipsePerimeter;whiteSpace=wrap;html=1;backgroundOutline=1;fillColor=#f8cecc;strokeColor=#b85450;" parent="vyHXcFt4tAlE9tNFwshi-1" vertex="1">
                    <mxGeometry x="560" y="160" width="40" height="40" as="geometry"/>
                </mxCell>
                <mxCell id="vyHXcFt4tAlE9tNFwshi-65" style="rounded=0;html=1;exitX=0.5;exitY=1;exitDx=0;exitDy=0;entryX=0.5;entryY=0;entryDx=0;entryDy=0;strokeWidth=1;edgeStyle=orthogonalEdgeStyle;" parent="vyHXcFt4tAlE9tNFwshi-1" source="vyHXcFt4tAlE9tNFwshi-66" target="vyHXcFt4tAlE9tNFwshi-71" edge="1">
                    <mxGeometry relative="1" as="geometry">
                        <mxPoint x="660" y="180" as="sourcePoint"/>
                        <Array as="points">
                            <mxPoint x="700" y="200"/>
                        </Array>
                    </mxGeometry>
                </mxCell>
                <mxCell id="vyHXcFt4tAlE9tNFwshi-66" value="" style="shape=sumEllipse;perimeter=ellipsePerimeter;whiteSpace=wrap;html=1;backgroundOutline=1;fillColor=#fff2cc;strokeColor=#d6b656;" parent="vyHXcFt4tAlE9tNFwshi-1" vertex="1">
                    <mxGeometry x="640" y="160" width="40" height="40" as="geometry"/>
                </mxCell>
                <mxCell id="vyHXcFt4tAlE9tNFwshi-67" style="edgeStyle=orthogonalEdgeStyle;rounded=0;html=1;exitX=0.5;exitY=1;exitDx=0;exitDy=0;entryX=0.75;entryY=0;entryDx=0;entryDy=0;strokeWidth=1;" parent="vyHXcFt4tAlE9tNFwshi-1" source="vyHXcFt4tAlE9tNFwshi-68" target="vyHXcFt4tAlE9tNFwshi-70" edge="1">
                    <mxGeometry relative="1" as="geometry">
                        <mxPoint x="740" y="180" as="sourcePoint"/>
                    </mxGeometry>
                </mxCell>
                <mxCell id="vyHXcFt4tAlE9tNFwshi-68" value="" style="shape=sumEllipse;perimeter=ellipsePerimeter;whiteSpace=wrap;html=1;backgroundOutline=1;fillColor=#f8cecc;strokeColor=#b85450;" parent="vyHXcFt4tAlE9tNFwshi-1" vertex="1">
                    <mxGeometry x="720" y="160" width="40" height="40" as="geometry"/>
                </mxCell>
                <mxCell id="vyHXcFt4tAlE9tNFwshi-69" value="" style="rounded=0;whiteSpace=wrap;html=1;fillColor=none;" parent="vyHXcFt4tAlE9tNFwshi-1" vertex="1">
                    <mxGeometry x="620" y="220" width="80" height="20" as="geometry"/>
                </mxCell>
                <mxCell id="vyHXcFt4tAlE9tNFwshi-70" value="" style="rounded=0;whiteSpace=wrap;html=1;fillColor=none;" parent="vyHXcFt4tAlE9tNFwshi-1" vertex="1">
                    <mxGeometry x="620" y="260" width="80" height="20" as="geometry"/>
                </mxCell>
                <mxCell id="vyHXcFt4tAlE9tNFwshi-71" value="" style="rounded=0;whiteSpace=wrap;html=1;fillColor=none;" parent="vyHXcFt4tAlE9tNFwshi-1" vertex="1">
                    <mxGeometry x="660" y="300" width="80" height="20" as="geometry"/>
                </mxCell>
                <mxCell id="vyHXcFt4tAlE9tNFwshi-72" value="" style="shape=orEllipse;perimeter=ellipsePerimeter;whiteSpace=wrap;html=1;backgroundOutline=1;fillColor=none;" parent="vyHXcFt4tAlE9tNFwshi-1" vertex="1">
                    <mxGeometry x="650" y="240" width="20" height="20" as="geometry"/>
                </mxCell>
                <mxCell id="vyHXcFt4tAlE9tNFwshi-73" value="" style="shape=orEllipse;perimeter=ellipsePerimeter;whiteSpace=wrap;html=1;backgroundOutline=1;fillColor=none;" parent="vyHXcFt4tAlE9tNFwshi-1" vertex="1">
                    <mxGeometry x="670" y="280" width="20" height="20" as="geometry"/>
                </mxCell>
                <mxCell id="vyHXcFt4tAlE9tNFwshi-74" value="" style="rounded=0;whiteSpace=wrap;html=1;fillColor=#f8cecc;strokeColor=#b85450;" parent="vyHXcFt4tAlE9tNFwshi-1" vertex="1">
                    <mxGeometry x="520" y="320" width="40" height="20" as="geometry"/>
                </mxCell>
                <mxCell id="vyHXcFt4tAlE9tNFwshi-75" value="" style="rounded=0;whiteSpace=wrap;html=1;fillColor=#fff2cc;strokeColor=#d6b656;" parent="vyHXcFt4tAlE9tNFwshi-1" vertex="1">
                    <mxGeometry x="520" y="360" width="40" height="20" as="geometry"/>
                </mxCell>
                <mxCell id="vyHXcFt4tAlE9tNFwshi-76" value="low-bit" style="text;html=1;align=center;verticalAlign=middle;resizable=0;points=[];autosize=1;strokeColor=none;fillColor=none;" parent="vyHXcFt4tAlE9tNFwshi-1" vertex="1">
                    <mxGeometry x="555" y="320" width="50" height="20" as="geometry"/>
                </mxCell>
                <mxCell id="vyHXcFt4tAlE9tNFwshi-77" value="full" style="text;html=1;align=center;verticalAlign=middle;resizable=0;points=[];autosize=1;strokeColor=none;fillColor=none;" parent="vyHXcFt4tAlE9tNFwshi-1" vertex="1">
                    <mxGeometry x="565" y="360" width="30" height="20" as="geometry"/>
                </mxCell>
                <mxCell id="vyHXcFt4tAlE9tNFwshi-78" style="edgeStyle=none;html=1;exitX=0.5;exitY=1;exitDx=0;exitDy=0;entryX=0;entryY=0;entryDx=0;entryDy=0;" parent="vyHXcFt4tAlE9tNFwshi-1" source="vyHXcFt4tAlE9tNFwshi-79" target="vyHXcFt4tAlE9tNFwshi-89" edge="1">
                    <mxGeometry relative="1" as="geometry"/>
                </mxCell>
                <mxCell id="vyHXcFt4tAlE9tNFwshi-79" value="A" style="ellipse;whiteSpace=wrap;html=1;aspect=fixed;fillColor=none;" parent="vyHXcFt4tAlE9tNFwshi-1" vertex="1">
                    <mxGeometry x="40" y="480" width="40" height="40" as="geometry"/>
                </mxCell>
                <mxCell id="vyHXcFt4tAlE9tNFwshi-80" style="edgeStyle=none;html=1;exitX=0.5;exitY=1;exitDx=0;exitDy=0;entryX=0;entryY=0;entryDx=0;entryDy=0;" parent="vyHXcFt4tAlE9tNFwshi-1" source="vyHXcFt4tAlE9tNFwshi-81" target="vyHXcFt4tAlE9tNFwshi-91" edge="1">
                    <mxGeometry relative="1" as="geometry"/>
                </mxCell>
                <mxCell id="vyHXcFt4tAlE9tNFwshi-81" value="D" style="ellipse;whiteSpace=wrap;html=1;aspect=fixed;fillColor=none;" parent="vyHXcFt4tAlE9tNFwshi-1" vertex="1">
                    <mxGeometry x="120" y="480" width="40" height="40" as="geometry"/>
                </mxCell>
                <mxCell id="vyHXcFt4tAlE9tNFwshi-82" style="edgeStyle=none;html=1;exitX=0.5;exitY=1;exitDx=0;exitDy=0;entryX=1;entryY=0;entryDx=0;entryDy=0;" parent="vyHXcFt4tAlE9tNFwshi-1" source="vyHXcFt4tAlE9tNFwshi-81" target="vyHXcFt4tAlE9tNFwshi-89" edge="1">
                    <mxGeometry relative="1" as="geometry"/>
                </mxCell>
                <mxCell id="vyHXcFt4tAlE9tNFwshi-83" value="C" style="ellipse;whiteSpace=wrap;html=1;aspect=fixed;fillColor=none;" parent="vyHXcFt4tAlE9tNFwshi-1" vertex="1">
                    <mxGeometry x="200" y="480" width="40" height="40" as="geometry"/>
                </mxCell>
                <mxCell id="vyHXcFt4tAlE9tNFwshi-84" style="edgeStyle=none;html=1;exitX=0.5;exitY=1;exitDx=0;exitDy=0;entryX=1;entryY=0;entryDx=0;entryDy=0;" parent="vyHXcFt4tAlE9tNFwshi-1" source="vyHXcFt4tAlE9tNFwshi-85" target="vyHXcFt4tAlE9tNFwshi-91" edge="1">
                    <mxGeometry relative="1" as="geometry"/>
                </mxCell>
                <mxCell id="vyHXcFt4tAlE9tNFwshi-85" value="B" style="ellipse;whiteSpace=wrap;html=1;aspect=fixed;fillColor=none;" parent="vyHXcFt4tAlE9tNFwshi-1" vertex="1">
                    <mxGeometry x="280" y="480" width="40" height="40" as="geometry"/>
                </mxCell>
                <mxCell id="vyHXcFt4tAlE9tNFwshi-86" style="edgeStyle=none;html=1;exitX=0.5;exitY=1;exitDx=0;exitDy=0;entryX=0;entryY=0;entryDx=0;entryDy=0;" parent="vyHXcFt4tAlE9tNFwshi-1" source="vyHXcFt4tAlE9tNFwshi-83" target="vyHXcFt4tAlE9tNFwshi-93" edge="1">
                    <mxGeometry relative="1" as="geometry">
                        <mxPoint x="100.00000000000023" y="520" as="sourcePoint"/>
                    </mxGeometry>
                </mxCell>
                <mxCell id="vyHXcFt4tAlE9tNFwshi-87" style="edgeStyle=none;html=1;exitX=0.5;exitY=1;exitDx=0;exitDy=0;entryX=1;entryY=0;entryDx=0;entryDy=0;" parent="vyHXcFt4tAlE9tNFwshi-1" source="vyHXcFt4tAlE9tNFwshi-85" target="vyHXcFt4tAlE9tNFwshi-93" edge="1">
                    <mxGeometry relative="1" as="geometry">
                        <mxPoint x="260.0000000000002" y="520" as="sourcePoint"/>
                    </mxGeometry>
                </mxCell>
                <mxCell id="vyHXcFt4tAlE9tNFwshi-88" value="" style="rounded=0;html=1;exitX=0.5;exitY=1;exitDx=0;exitDy=0;entryX=0;entryY=0;entryDx=0;entryDy=0;" parent="vyHXcFt4tAlE9tNFwshi-1" source="vyHXcFt4tAlE9tNFwshi-89" target="vyHXcFt4tAlE9tNFwshi-98" edge="1">
                    <mxGeometry relative="1" as="geometry"/>
                </mxCell>
                <mxCell id="vyHXcFt4tAlE9tNFwshi-89" value="" style="shape=sumEllipse;perimeter=ellipsePerimeter;whiteSpace=wrap;html=1;backgroundOutline=1;fillColor=#fff2cc;strokeColor=#d6b656;" parent="vyHXcFt4tAlE9tNFwshi-1" vertex="1">
                    <mxGeometry x="80" y="640" width="40" height="40" as="geometry"/>
                </mxCell>
                <mxCell id="vyHXcFt4tAlE9tNFwshi-90" style="edgeStyle=none;rounded=0;html=1;exitX=0.5;exitY=1;exitDx=0;exitDy=0;entryX=1;entryY=0;entryDx=0;entryDy=0;" parent="vyHXcFt4tAlE9tNFwshi-1" source="vyHXcFt4tAlE9tNFwshi-91" target="vyHXcFt4tAlE9tNFwshi-100" edge="1">
                    <mxGeometry relative="1" as="geometry"/>
                </mxCell>
                <mxCell id="vyHXcFt4tAlE9tNFwshi-91" value="" style="shape=sumEllipse;perimeter=ellipsePerimeter;whiteSpace=wrap;html=1;backgroundOutline=1;fillColor=#e1d5e7;strokeColor=#9673a6;" parent="vyHXcFt4tAlE9tNFwshi-1" vertex="1">
                    <mxGeometry x="200" y="800" width="40" height="40" as="geometry"/>
                </mxCell>
                <mxCell id="vyHXcFt4tAlE9tNFwshi-92" value="17 bits" style="edgeStyle=none;rounded=0;html=1;exitX=0.5;exitY=1;exitDx=0;exitDy=0;entryX=1;entryY=0;entryDx=0;entryDy=0;" parent="vyHXcFt4tAlE9tNFwshi-1" source="vyHXcFt4tAlE9tNFwshi-93" target="vyHXcFt4tAlE9tNFwshi-98" edge="1">
                    <mxGeometry relative="1" as="geometry">
                        <mxPoint x="219.99999999999977" y="620" as="sourcePoint"/>
                    </mxGeometry>
                </mxCell>
                <mxCell id="vyHXcFt4tAlE9tNFwshi-93" value="" style="shape=sumEllipse;perimeter=ellipsePerimeter;whiteSpace=wrap;html=1;backgroundOutline=1;fillColor=#f8cecc;strokeColor=#b85450;" parent="vyHXcFt4tAlE9tNFwshi-1" vertex="1">
                    <mxGeometry x="200" y="560" width="40" height="40" as="geometry"/>
                </mxCell>
                <mxCell id="vyHXcFt4tAlE9tNFwshi-94" value="DSP0" style="rounded=0;whiteSpace=wrap;html=1;fillColor=#f8cecc;strokeColor=#b85450;" parent="vyHXcFt4tAlE9tNFwshi-1" vertex="1">
                    <mxGeometry x="40" y="860" width="40" height="20" as="geometry"/>
                </mxCell>
                <mxCell id="vyHXcFt4tAlE9tNFwshi-95" value="DSP1" style="rounded=0;whiteSpace=wrap;html=1;fillColor=#fff2cc;strokeColor=#d6b656;" parent="vyHXcFt4tAlE9tNFwshi-1" vertex="1">
                    <mxGeometry x="40" y="900" width="40" height="20" as="geometry"/>
                </mxCell>
                <mxCell id="vyHXcFt4tAlE9tNFwshi-96" value="DSP2" style="rounded=0;whiteSpace=wrap;html=1;fillColor=#e1d5e7;strokeColor=#9673a6;" parent="vyHXcFt4tAlE9tNFwshi-1" vertex="1">
                    <mxGeometry x="40" y="940" width="40" height="20" as="geometry"/>
                </mxCell>
                <mxCell id="vyHXcFt4tAlE9tNFwshi-97" value="&amp;lt;&amp;lt; 17&lt;br&gt;34 bits" style="edgeStyle=none;rounded=0;html=1;exitX=0.5;exitY=1;exitDx=0;exitDy=0;entryX=0;entryY=0;entryDx=0;entryDy=0;" parent="vyHXcFt4tAlE9tNFwshi-1" source="vyHXcFt4tAlE9tNFwshi-98" target="vyHXcFt4tAlE9tNFwshi-100" edge="1">
                    <mxGeometry relative="1" as="geometry">
                        <mxPoint x="139.99999999999977" y="840" as="sourcePoint"/>
                    </mxGeometry>
                </mxCell>
                <mxCell id="vyHXcFt4tAlE9tNFwshi-98" value="" style="shape=orEllipse;perimeter=ellipsePerimeter;whiteSpace=wrap;html=1;backgroundOutline=1;strokeColor=#d6b656;fillColor=#fff2cc;" parent="vyHXcFt4tAlE9tNFwshi-1" vertex="1">
                    <mxGeometry x="120" y="720" width="40" height="40" as="geometry"/>
                </mxCell>
                <mxCell id="vyHXcFt4tAlE9tNFwshi-99" style="edgeStyle=orthogonalEdgeStyle;rounded=0;html=1;exitX=0.5;exitY=1;exitDx=0;exitDy=0;" parent="vyHXcFt4tAlE9tNFwshi-1" source="vyHXcFt4tAlE9tNFwshi-100" edge="1">
                    <mxGeometry relative="1" as="geometry">
                        <mxPoint x="180" y="960" as="targetPoint"/>
                    </mxGeometry>
                </mxCell>
                <mxCell id="vyHXcFt4tAlE9tNFwshi-100" value="" style="shape=orEllipse;perimeter=ellipsePerimeter;whiteSpace=wrap;html=1;backgroundOutline=1;strokeColor=#9673a6;fillColor=#e1d5e7;" parent="vyHXcFt4tAlE9tNFwshi-1" vertex="1">
                    <mxGeometry x="160" y="880" width="40" height="40" as="geometry"/>
                </mxCell>
            </root>
        </mxGraphModel>
    </diagram>
    <diagram id="26e4_Fn3tdjdC_186cDF" name="dsp-square">
        <mxGraphModel dx="1706" dy="879" grid="1" gridSize="10" guides="1" tooltips="1" connect="1" arrows="1" fold="1" page="1" pageScale="1" pageWidth="827" pageHeight="1169" math="0" shadow="0">
            <root>
                <mxCell id="2qmj4Z6egMab9GtEGI2O-0"/>
                <mxCell id="2qmj4Z6egMab9GtEGI2O-1" parent="2qmj4Z6egMab9GtEGI2O-0"/>
                <mxCell id="2qmj4Z6egMab9GtEGI2O-2" value="" style="shape=parallelogram;perimeter=parallelogramPerimeter;whiteSpace=wrap;html=1;fixedSize=1;size=80;fillColor=#dae8fc;strokeColor=#6c8ebf;" parent="2qmj4Z6egMab9GtEGI2O-1" vertex="1">
                    <mxGeometry x="150" y="210" width="160" height="80" as="geometry"/>
                </mxCell>
                <mxCell id="2qmj4Z6egMab9GtEGI2O-3" value="" style="shape=parallelogram;perimeter=parallelogramPerimeter;whiteSpace=wrap;html=1;fixedSize=1;size=80;fillColor=#dae8fc;strokeColor=#6c8ebf;" parent="2qmj4Z6egMab9GtEGI2O-1" vertex="1">
                    <mxGeometry x="150" y="130" width="160" height="80" as="geometry"/>
                </mxCell>
                <mxCell id="2qmj4Z6egMab9GtEGI2O-4" value="" style="shape=parallelogram;perimeter=parallelogramPerimeter;whiteSpace=wrap;html=1;fixedSize=1;size=80;fillColor=#d5e8d4;strokeColor=#82b366;" parent="2qmj4Z6egMab9GtEGI2O-1" vertex="1">
                    <mxGeometry x="70" y="210" width="160" height="80" as="geometry"/>
                </mxCell>
                <mxCell id="2qmj4Z6egMab9GtEGI2O-5" value="" style="shape=parallelogram;perimeter=parallelogramPerimeter;whiteSpace=wrap;html=1;fixedSize=1;size=80;fillColor=#ffe6cc;strokeColor=#d79b00;" parent="2qmj4Z6egMab9GtEGI2O-1" vertex="1">
                    <mxGeometry x="230" y="130" width="160" height="80" as="geometry"/>
                </mxCell>
                <mxCell id="2qmj4Z6egMab9GtEGI2O-6" value="" style="endArrow=none;html=1;" parent="2qmj4Z6egMab9GtEGI2O-1" edge="1">
                    <mxGeometry width="50" height="50" relative="1" as="geometry">
                        <mxPoint x="160.00000000000023" y="120" as="sourcePoint"/>
                        <mxPoint x="360.0000000000002" y="120" as="targetPoint"/>
                    </mxGeometry>
                </mxCell>
                <mxCell id="2qmj4Z6egMab9GtEGI2O-7" value="" style="endArrow=none;html=1;" parent="2qmj4Z6egMab9GtEGI2O-1" edge="1">
                    <mxGeometry width="50" height="50" relative="1" as="geometry">
                        <mxPoint x="160.00000000000023" y="100" as="sourcePoint"/>
                        <mxPoint x="180.00000000000023" y="80" as="targetPoint"/>
                    </mxGeometry>
                </mxCell>
                <mxCell id="2qmj4Z6egMab9GtEGI2O-8" value="" style="endArrow=none;html=1;" parent="2qmj4Z6egMab9GtEGI2O-1" edge="1">
                    <mxGeometry width="50" height="50" relative="1" as="geometry">
                        <mxPoint x="160.00000000000023" y="80" as="sourcePoint"/>
                        <mxPoint x="180.00000000000023" y="100" as="targetPoint"/>
                    </mxGeometry>
                </mxCell>
                <mxCell id="2qmj4Z6egMab9GtEGI2O-9" value="" style="ellipse;whiteSpace=wrap;html=1;aspect=fixed;" parent="2qmj4Z6egMab9GtEGI2O-1" vertex="1">
                    <mxGeometry x="220" y="140" width="20" height="20" as="geometry"/>
                </mxCell>
                <mxCell id="2qmj4Z6egMab9GtEGI2O-10" value="" style="ellipse;whiteSpace=wrap;html=1;aspect=fixed;" parent="2qmj4Z6egMab9GtEGI2O-1" vertex="1">
                    <mxGeometry x="260" y="140" width="20" height="20" as="geometry"/>
                </mxCell>
                <mxCell id="2qmj4Z6egMab9GtEGI2O-11" value="" style="ellipse;whiteSpace=wrap;html=1;aspect=fixed;" parent="2qmj4Z6egMab9GtEGI2O-1" vertex="1">
                    <mxGeometry x="300" y="140" width="20" height="20" as="geometry"/>
                </mxCell>
                <mxCell id="2qmj4Z6egMab9GtEGI2O-12" value="" style="ellipse;whiteSpace=wrap;html=1;aspect=fixed;" parent="2qmj4Z6egMab9GtEGI2O-1" vertex="1">
                    <mxGeometry x="340" y="140" width="20" height="20" as="geometry"/>
                </mxCell>
                <mxCell id="2qmj4Z6egMab9GtEGI2O-13" value="" style="ellipse;whiteSpace=wrap;html=1;aspect=fixed;" parent="2qmj4Z6egMab9GtEGI2O-1" vertex="1">
                    <mxGeometry x="180" y="180" width="20" height="20" as="geometry"/>
                </mxCell>
                <mxCell id="2qmj4Z6egMab9GtEGI2O-14" value="" style="ellipse;whiteSpace=wrap;html=1;aspect=fixed;" parent="2qmj4Z6egMab9GtEGI2O-1" vertex="1">
                    <mxGeometry x="220" y="180" width="20" height="20" as="geometry"/>
                </mxCell>
                <mxCell id="2qmj4Z6egMab9GtEGI2O-15" value="" style="ellipse;whiteSpace=wrap;html=1;aspect=fixed;" parent="2qmj4Z6egMab9GtEGI2O-1" vertex="1">
                    <mxGeometry x="260" y="180" width="20" height="20" as="geometry"/>
                </mxCell>
                <mxCell id="2qmj4Z6egMab9GtEGI2O-16" value="" style="ellipse;whiteSpace=wrap;html=1;aspect=fixed;" parent="2qmj4Z6egMab9GtEGI2O-1" vertex="1">
                    <mxGeometry x="300" y="180" width="20" height="20" as="geometry"/>
                </mxCell>
                <mxCell id="2qmj4Z6egMab9GtEGI2O-17" value="" style="ellipse;whiteSpace=wrap;html=1;aspect=fixed;" parent="2qmj4Z6egMab9GtEGI2O-1" vertex="1">
                    <mxGeometry x="140" y="220" width="20" height="20" as="geometry"/>
                </mxCell>
                <mxCell id="2qmj4Z6egMab9GtEGI2O-18" value="" style="ellipse;whiteSpace=wrap;html=1;aspect=fixed;" parent="2qmj4Z6egMab9GtEGI2O-1" vertex="1">
                    <mxGeometry x="180" y="220" width="20" height="20" as="geometry"/>
                </mxCell>
                <mxCell id="2qmj4Z6egMab9GtEGI2O-19" value="" style="ellipse;whiteSpace=wrap;html=1;aspect=fixed;" parent="2qmj4Z6egMab9GtEGI2O-1" vertex="1">
                    <mxGeometry x="220" y="220" width="20" height="20" as="geometry"/>
                </mxCell>
                <mxCell id="2qmj4Z6egMab9GtEGI2O-20" value="" style="ellipse;whiteSpace=wrap;html=1;aspect=fixed;" parent="2qmj4Z6egMab9GtEGI2O-1" vertex="1">
                    <mxGeometry x="260" y="220" width="20" height="20" as="geometry"/>
                </mxCell>
                <mxCell id="2qmj4Z6egMab9GtEGI2O-21" value="" style="ellipse;whiteSpace=wrap;html=1;aspect=fixed;" parent="2qmj4Z6egMab9GtEGI2O-1" vertex="1">
                    <mxGeometry x="100" y="260" width="20" height="20" as="geometry"/>
                </mxCell>
                <mxCell id="2qmj4Z6egMab9GtEGI2O-22" value="" style="ellipse;whiteSpace=wrap;html=1;aspect=fixed;" parent="2qmj4Z6egMab9GtEGI2O-1" vertex="1">
                    <mxGeometry x="140" y="260" width="20" height="20" as="geometry"/>
                </mxCell>
                <mxCell id="2qmj4Z6egMab9GtEGI2O-23" value="" style="ellipse;whiteSpace=wrap;html=1;aspect=fixed;" parent="2qmj4Z6egMab9GtEGI2O-1" vertex="1">
                    <mxGeometry x="180" y="260" width="20" height="20" as="geometry"/>
                </mxCell>
                <mxCell id="2qmj4Z6egMab9GtEGI2O-24" value="" style="ellipse;whiteSpace=wrap;html=1;aspect=fixed;" parent="2qmj4Z6egMab9GtEGI2O-1" vertex="1">
                    <mxGeometry x="220" y="260" width="20" height="20" as="geometry"/>
                </mxCell>
                <mxCell id="2qmj4Z6egMab9GtEGI2O-25" value="" style="endArrow=none;html=1;" parent="2qmj4Z6egMab9GtEGI2O-1" edge="1">
                    <mxGeometry width="50" height="50" relative="1" as="geometry">
                        <mxPoint x="40" y="300" as="sourcePoint"/>
                        <mxPoint x="360.0000000000002" y="300" as="targetPoint"/>
                    </mxGeometry>
                </mxCell>
                <mxCell id="2qmj4Z6egMab9GtEGI2O-26" value="" style="ellipse;whiteSpace=wrap;html=1;aspect=fixed;" parent="2qmj4Z6egMab9GtEGI2O-1" vertex="1">
                    <mxGeometry x="220" y="320" width="20" height="20" as="geometry"/>
                </mxCell>
                <mxCell id="2qmj4Z6egMab9GtEGI2O-27" value="" style="ellipse;whiteSpace=wrap;html=1;aspect=fixed;" parent="2qmj4Z6egMab9GtEGI2O-1" vertex="1">
                    <mxGeometry x="260" y="320" width="20" height="20" as="geometry"/>
                </mxCell>
                <mxCell id="2qmj4Z6egMab9GtEGI2O-28" value="" style="ellipse;whiteSpace=wrap;html=1;aspect=fixed;" parent="2qmj4Z6egMab9GtEGI2O-1" vertex="1">
                    <mxGeometry x="300" y="320" width="20" height="20" as="geometry"/>
                </mxCell>
                <mxCell id="2qmj4Z6egMab9GtEGI2O-29" value="" style="ellipse;whiteSpace=wrap;html=1;aspect=fixed;" parent="2qmj4Z6egMab9GtEGI2O-1" vertex="1">
                    <mxGeometry x="340" y="320" width="20" height="20" as="geometry"/>
                </mxCell>
                <mxCell id="2qmj4Z6egMab9GtEGI2O-30" value="" style="ellipse;whiteSpace=wrap;html=1;aspect=fixed;" parent="2qmj4Z6egMab9GtEGI2O-1" vertex="1">
                    <mxGeometry x="60" y="320" width="20" height="20" as="geometry"/>
                </mxCell>
                <mxCell id="2qmj4Z6egMab9GtEGI2O-31" value="" style="ellipse;whiteSpace=wrap;html=1;aspect=fixed;" parent="2qmj4Z6egMab9GtEGI2O-1" vertex="1">
                    <mxGeometry x="100" y="320" width="20" height="20" as="geometry"/>
                </mxCell>
                <mxCell id="2qmj4Z6egMab9GtEGI2O-32" value="" style="ellipse;whiteSpace=wrap;html=1;aspect=fixed;" parent="2qmj4Z6egMab9GtEGI2O-1" vertex="1">
                    <mxGeometry x="140" y="320" width="20" height="20" as="geometry"/>
                </mxCell>
                <mxCell id="2qmj4Z6egMab9GtEGI2O-33" value="" style="ellipse;whiteSpace=wrap;html=1;aspect=fixed;" parent="2qmj4Z6egMab9GtEGI2O-1" vertex="1">
                    <mxGeometry x="180" y="320" width="20" height="20" as="geometry"/>
                </mxCell>
                <mxCell id="2qmj4Z6egMab9GtEGI2O-34" value="carry" style="text;html=1;align=center;verticalAlign=middle;resizable=0;points=[];autosize=1;strokeColor=none;fillColor=none;" parent="2qmj4Z6egMab9GtEGI2O-1" vertex="1">
                    <mxGeometry x="50" y="340" width="40" height="20" as="geometry"/>
                </mxCell>
                <mxCell id="2qmj4Z6egMab9GtEGI2O-35" value="squaring:" style="text;html=1;align=center;verticalAlign=middle;resizable=0;points=[];autosize=1;strokeColor=none;fillColor=none;" parent="2qmj4Z6egMab9GtEGI2O-1" vertex="1">
                    <mxGeometry x="90" y="370" width="60" height="20" as="geometry"/>
                </mxCell>
                <mxCell id="2qmj4Z6egMab9GtEGI2O-36" value="" style="rounded=0;whiteSpace=wrap;html=1;fillColor=#ffe6cc;strokeColor=#d79b00;" parent="2qmj4Z6egMab9GtEGI2O-1" vertex="1">
                    <mxGeometry x="160" y="370" width="40" height="20" as="geometry"/>
                </mxCell>
                <mxCell id="2qmj4Z6egMab9GtEGI2O-37" value="+" style="text;html=1;align=center;verticalAlign=middle;resizable=0;points=[];autosize=1;strokeColor=none;fillColor=none;" parent="2qmj4Z6egMab9GtEGI2O-1" vertex="1">
                    <mxGeometry x="200" y="370" width="20" height="20" as="geometry"/>
                </mxCell>
                <mxCell id="2qmj4Z6egMab9GtEGI2O-38" value="" style="rounded=0;whiteSpace=wrap;html=1;fillColor=#dae8fc;strokeColor=#6c8ebf;" parent="2qmj4Z6egMab9GtEGI2O-1" vertex="1">
                    <mxGeometry x="220" y="370" width="40" height="20" as="geometry"/>
                </mxCell>
                <mxCell id="2qmj4Z6egMab9GtEGI2O-39" value="+" style="text;html=1;align=center;verticalAlign=middle;resizable=0;points=[];autosize=1;strokeColor=none;fillColor=none;" parent="2qmj4Z6egMab9GtEGI2O-1" vertex="1">
                    <mxGeometry x="260" y="370" width="20" height="20" as="geometry"/>
                </mxCell>
                <mxCell id="2qmj4Z6egMab9GtEGI2O-40" value="" style="rounded=0;whiteSpace=wrap;html=1;fillColor=#d5e8d4;strokeColor=#82b366;" parent="2qmj4Z6egMab9GtEGI2O-1" vertex="1">
                    <mxGeometry x="280" y="370" width="40" height="20" as="geometry"/>
                </mxCell>
                <mxCell id="2qmj4Z6egMab9GtEGI2O-41" value="" style="ellipse;whiteSpace=wrap;html=1;aspect=fixed;" parent="2qmj4Z6egMab9GtEGI2O-1" vertex="1">
                    <mxGeometry x="230" y="40" width="20" height="20" as="geometry"/>
                </mxCell>
                <mxCell id="2qmj4Z6egMab9GtEGI2O-42" value="" style="ellipse;whiteSpace=wrap;html=1;aspect=fixed;" parent="2qmj4Z6egMab9GtEGI2O-1" vertex="1">
                    <mxGeometry x="270" y="40" width="20" height="20" as="geometry"/>
                </mxCell>
                <mxCell id="2qmj4Z6egMab9GtEGI2O-43" value="" style="ellipse;whiteSpace=wrap;html=1;aspect=fixed;" parent="2qmj4Z6egMab9GtEGI2O-1" vertex="1">
                    <mxGeometry x="310" y="40" width="20" height="20" as="geometry"/>
                </mxCell>
                <mxCell id="2qmj4Z6egMab9GtEGI2O-44" value="" style="ellipse;whiteSpace=wrap;html=1;aspect=fixed;" parent="2qmj4Z6egMab9GtEGI2O-1" vertex="1">
                    <mxGeometry x="350" y="40" width="20" height="20" as="geometry"/>
                </mxCell>
                <mxCell id="2qmj4Z6egMab9GtEGI2O-45" value="" style="ellipse;whiteSpace=wrap;html=1;aspect=fixed;" parent="2qmj4Z6egMab9GtEGI2O-1" vertex="1">
                    <mxGeometry x="230" y="80" width="20" height="20" as="geometry"/>
                </mxCell>
                <mxCell id="2qmj4Z6egMab9GtEGI2O-46" value="" style="ellipse;whiteSpace=wrap;html=1;aspect=fixed;" parent="2qmj4Z6egMab9GtEGI2O-1" vertex="1">
                    <mxGeometry x="270" y="80" width="20" height="20" as="geometry"/>
                </mxCell>
                <mxCell id="2qmj4Z6egMab9GtEGI2O-47" value="" style="ellipse;whiteSpace=wrap;html=1;aspect=fixed;" parent="2qmj4Z6egMab9GtEGI2O-1" vertex="1">
                    <mxGeometry x="310" y="80" width="20" height="20" as="geometry"/>
                </mxCell>
                <mxCell id="2qmj4Z6egMab9GtEGI2O-48" value="" style="ellipse;whiteSpace=wrap;html=1;aspect=fixed;" parent="2qmj4Z6egMab9GtEGI2O-1" vertex="1">
                    <mxGeometry x="350" y="80" width="20" height="20" as="geometry"/>
                </mxCell>
                <mxCell id="2qmj4Z6egMab9GtEGI2O-49" value="A" style="rounded=0;whiteSpace=wrap;html=1;fillColor=none;" parent="2qmj4Z6egMab9GtEGI2O-1" vertex="1">
                    <mxGeometry x="220" y="40" width="80" height="20" as="geometry"/>
                </mxCell>
                <mxCell id="2qmj4Z6egMab9GtEGI2O-50" value="B" style="rounded=0;whiteSpace=wrap;html=1;fillColor=none;" parent="2qmj4Z6egMab9GtEGI2O-1" vertex="1">
                    <mxGeometry x="300" y="40" width="80" height="20" as="geometry"/>
                </mxCell>
                <mxCell id="2qmj4Z6egMab9GtEGI2O-51" value="C" style="rounded=0;whiteSpace=wrap;html=1;fillColor=none;" parent="2qmj4Z6egMab9GtEGI2O-1" vertex="1">
                    <mxGeometry x="220" y="80" width="80" height="20" as="geometry"/>
                </mxCell>
                <mxCell id="2qmj4Z6egMab9GtEGI2O-52" value="D" style="rounded=0;whiteSpace=wrap;html=1;fillColor=none;" parent="2qmj4Z6egMab9GtEGI2O-1" vertex="1">
                    <mxGeometry x="300" y="80" width="80" height="20" as="geometry"/>
                </mxCell>
                <mxCell id="2qmj4Z6egMab9GtEGI2O-53" style="edgeStyle=none;html=1;exitX=0.5;exitY=1;exitDx=0;exitDy=0;entryX=0;entryY=0;entryDx=0;entryDy=0;" parent="2qmj4Z6egMab9GtEGI2O-1" source="2qmj4Z6egMab9GtEGI2O-54" target="2qmj4Z6egMab9GtEGI2O-64" edge="1">
                    <mxGeometry relative="1" as="geometry"/>
                </mxCell>
                <mxCell id="2qmj4Z6egMab9GtEGI2O-54" value="A" style="ellipse;whiteSpace=wrap;html=1;aspect=fixed;fillColor=none;" parent="2qmj4Z6egMab9GtEGI2O-1" vertex="1">
                    <mxGeometry x="520" y="80" width="40" height="40" as="geometry"/>
                </mxCell>
                <mxCell id="2qmj4Z6egMab9GtEGI2O-55" style="edgeStyle=none;html=1;exitX=0.5;exitY=1;exitDx=0;exitDy=0;entryX=0;entryY=0;entryDx=0;entryDy=0;" parent="2qmj4Z6egMab9GtEGI2O-1" source="2qmj4Z6egMab9GtEGI2O-56" target="2qmj4Z6egMab9GtEGI2O-66" edge="1">
                    <mxGeometry relative="1" as="geometry"/>
                </mxCell>
                <mxCell id="2qmj4Z6egMab9GtEGI2O-56" value="C" style="ellipse;whiteSpace=wrap;html=1;aspect=fixed;fillColor=none;" parent="2qmj4Z6egMab9GtEGI2O-1" vertex="1">
                    <mxGeometry x="600" y="80" width="40" height="40" as="geometry"/>
                </mxCell>
                <mxCell id="2qmj4Z6egMab9GtEGI2O-57" style="edgeStyle=none;html=1;exitX=0.5;exitY=1;exitDx=0;exitDy=0;entryX=1;entryY=0;entryDx=0;entryDy=0;" parent="2qmj4Z6egMab9GtEGI2O-1" source="2qmj4Z6egMab9GtEGI2O-56" target="2qmj4Z6egMab9GtEGI2O-64" edge="1">
                    <mxGeometry relative="1" as="geometry"/>
                </mxCell>
                <mxCell id="2qmj4Z6egMab9GtEGI2O-58" value="B" style="ellipse;whiteSpace=wrap;html=1;aspect=fixed;fillColor=none;" parent="2qmj4Z6egMab9GtEGI2O-1" vertex="1">
                    <mxGeometry x="680" y="80" width="40" height="40" as="geometry"/>
                </mxCell>
                <mxCell id="2qmj4Z6egMab9GtEGI2O-59" style="edgeStyle=none;html=1;exitX=0.5;exitY=1;exitDx=0;exitDy=0;entryX=1;entryY=0;entryDx=0;entryDy=0;" parent="2qmj4Z6egMab9GtEGI2O-1" source="2qmj4Z6egMab9GtEGI2O-58" target="2qmj4Z6egMab9GtEGI2O-66" edge="1">
                    <mxGeometry relative="1" as="geometry"/>
                </mxCell>
                <mxCell id="2qmj4Z6egMab9GtEGI2O-60" value="D" style="ellipse;whiteSpace=wrap;html=1;aspect=fixed;fillColor=none;" parent="2qmj4Z6egMab9GtEGI2O-1" vertex="1">
                    <mxGeometry x="760" y="80" width="40" height="40" as="geometry"/>
                </mxCell>
                <mxCell id="2qmj4Z6egMab9GtEGI2O-61" style="edgeStyle=none;html=1;exitX=0.5;exitY=1;exitDx=0;exitDy=0;entryX=0;entryY=0;entryDx=0;entryDy=0;" parent="2qmj4Z6egMab9GtEGI2O-1" source="2qmj4Z6egMab9GtEGI2O-58" target="2qmj4Z6egMab9GtEGI2O-68" edge="1">
                    <mxGeometry relative="1" as="geometry">
                        <mxPoint x="580.0000000000002" y="120" as="sourcePoint"/>
                    </mxGeometry>
                </mxCell>
                <mxCell id="2qmj4Z6egMab9GtEGI2O-62" style="edgeStyle=none;html=1;exitX=0.5;exitY=1;exitDx=0;exitDy=0;entryX=1;entryY=0;entryDx=0;entryDy=0;" parent="2qmj4Z6egMab9GtEGI2O-1" source="2qmj4Z6egMab9GtEGI2O-60" target="2qmj4Z6egMab9GtEGI2O-68" edge="1">
                    <mxGeometry relative="1" as="geometry">
                        <mxPoint x="740.0000000000002" y="120" as="sourcePoint"/>
                    </mxGeometry>
                </mxCell>
                <mxCell id="2qmj4Z6egMab9GtEGI2O-63" style="edgeStyle=orthogonalEdgeStyle;html=1;exitX=0.5;exitY=1;exitDx=0;exitDy=0;entryX=0.5;entryY=0;entryDx=0;entryDy=0;rounded=0;" parent="2qmj4Z6egMab9GtEGI2O-1" source="2qmj4Z6egMab9GtEGI2O-64" target="2qmj4Z6egMab9GtEGI2O-69" edge="1">
                    <mxGeometry relative="1" as="geometry">
                        <mxPoint x="580" y="180" as="sourcePoint"/>
                    </mxGeometry>
                </mxCell>
                <mxCell id="2qmj4Z6egMab9GtEGI2O-64" value="" style="shape=sumEllipse;perimeter=ellipsePerimeter;whiteSpace=wrap;html=1;backgroundOutline=1;fillColor=#f8cecc;strokeColor=#b85450;" parent="2qmj4Z6egMab9GtEGI2O-1" vertex="1">
                    <mxGeometry x="560" y="160" width="40" height="40" as="geometry"/>
                </mxCell>
                <mxCell id="2qmj4Z6egMab9GtEGI2O-65" style="rounded=0;html=1;exitX=0.5;exitY=1;exitDx=0;exitDy=0;entryX=0;entryY=0.5;entryDx=0;entryDy=0;strokeWidth=1;edgeStyle=orthogonalEdgeStyle;" parent="2qmj4Z6egMab9GtEGI2O-1" source="2qmj4Z6egMab9GtEGI2O-66" target="2qmj4Z6egMab9GtEGI2O-77" edge="1">
                    <mxGeometry relative="1" as="geometry">
                        <mxPoint x="660" y="180" as="sourcePoint"/>
                        <Array as="points">
                            <mxPoint x="570" y="200"/>
                            <mxPoint x="570" y="290"/>
                        </Array>
                    </mxGeometry>
                </mxCell>
                <mxCell id="2qmj4Z6egMab9GtEGI2O-66" value="" style="shape=sumEllipse;perimeter=ellipsePerimeter;whiteSpace=wrap;html=1;backgroundOutline=1;fillColor=#fff2cc;strokeColor=#d6b656;" parent="2qmj4Z6egMab9GtEGI2O-1" vertex="1">
                    <mxGeometry x="640" y="160" width="40" height="40" as="geometry"/>
                </mxCell>
                <mxCell id="2qmj4Z6egMab9GtEGI2O-67" style="edgeStyle=orthogonalEdgeStyle;rounded=0;html=1;exitX=0.5;exitY=1;exitDx=0;exitDy=0;entryX=0.5;entryY=0;entryDx=0;entryDy=0;strokeWidth=1;" parent="2qmj4Z6egMab9GtEGI2O-1" source="2qmj4Z6egMab9GtEGI2O-68" target="2qmj4Z6egMab9GtEGI2O-71" edge="1">
                    <mxGeometry relative="1" as="geometry">
                        <mxPoint x="740" y="180" as="sourcePoint"/>
                    </mxGeometry>
                </mxCell>
                <mxCell id="2qmj4Z6egMab9GtEGI2O-68" value="" style="shape=sumEllipse;perimeter=ellipsePerimeter;whiteSpace=wrap;html=1;backgroundOutline=1;fillColor=#f8cecc;strokeColor=#b85450;" parent="2qmj4Z6egMab9GtEGI2O-1" vertex="1">
                    <mxGeometry x="720" y="160" width="40" height="40" as="geometry"/>
                </mxCell>
                <mxCell id="2qmj4Z6egMab9GtEGI2O-69" value="" style="rounded=0;whiteSpace=wrap;html=1;fillColor=none;" parent="2qmj4Z6egMab9GtEGI2O-1" vertex="1">
                    <mxGeometry x="580" y="220" width="80" height="20" as="geometry"/>
                </mxCell>
                <mxCell id="2qmj4Z6egMab9GtEGI2O-70" value="" style="rounded=0;whiteSpace=wrap;html=1;fillColor=none;dashed=1;" parent="2qmj4Z6egMab9GtEGI2O-1" vertex="1">
                    <mxGeometry x="620" y="280" width="80" height="20" as="geometry"/>
                </mxCell>
                <mxCell id="2qmj4Z6egMab9GtEGI2O-71" value="" style="rounded=0;whiteSpace=wrap;html=1;fillColor=none;" parent="2qmj4Z6egMab9GtEGI2O-1" vertex="1">
                    <mxGeometry x="660" y="220" width="80" height="20" as="geometry"/>
                </mxCell>
                <mxCell id="2qmj4Z6egMab9GtEGI2O-72" value="" style="shape=orEllipse;perimeter=ellipsePerimeter;whiteSpace=wrap;html=1;backgroundOutline=1;fillColor=none;" parent="2qmj4Z6egMab9GtEGI2O-1" vertex="1">
                    <mxGeometry x="645" y="240" width="40" height="40" as="geometry"/>
                </mxCell>
                <mxCell id="2qmj4Z6egMab9GtEGI2O-73" value="" style="rounded=0;whiteSpace=wrap;html=1;fillColor=#f8cecc;strokeColor=#b85450;" parent="2qmj4Z6egMab9GtEGI2O-1" vertex="1">
                    <mxGeometry x="520" y="320" width="40" height="20" as="geometry"/>
                </mxCell>
                <mxCell id="2qmj4Z6egMab9GtEGI2O-74" value="" style="rounded=0;whiteSpace=wrap;html=1;fillColor=#fff2cc;strokeColor=#d6b656;" parent="2qmj4Z6egMab9GtEGI2O-1" vertex="1">
                    <mxGeometry x="520" y="360" width="40" height="20" as="geometry"/>
                </mxCell>
                <mxCell id="2qmj4Z6egMab9GtEGI2O-75" value="square" style="text;html=1;align=center;verticalAlign=middle;resizable=0;points=[];autosize=1;strokeColor=none;fillColor=none;" parent="2qmj4Z6egMab9GtEGI2O-1" vertex="1">
                    <mxGeometry x="555" y="320" width="50" height="20" as="geometry"/>
                </mxCell>
                <mxCell id="2qmj4Z6egMab9GtEGI2O-76" value="full" style="text;html=1;align=center;verticalAlign=middle;resizable=0;points=[];autosize=1;strokeColor=none;fillColor=none;" parent="2qmj4Z6egMab9GtEGI2O-1" vertex="1">
                    <mxGeometry x="565" y="360" width="30" height="20" as="geometry"/>
                </mxCell>
                <mxCell id="2qmj4Z6egMab9GtEGI2O-77" value="" style="rounded=0;whiteSpace=wrap;html=1;fillColor=none;" parent="2qmj4Z6egMab9GtEGI2O-1" vertex="1">
                    <mxGeometry x="610" y="280" width="80" height="20" as="geometry"/>
                </mxCell>
                <mxCell id="2qmj4Z6egMab9GtEGI2O-78" value="" style="rounded=0;whiteSpace=wrap;html=1;dashed=1;strokeColor=#82b366;fillColor=none;" parent="2qmj4Z6egMab9GtEGI2O-1" vertex="1">
                    <mxGeometry x="580" y="220" width="110" height="80" as="geometry"/>
                </mxCell>
                <mxCell id="2qmj4Z6egMab9GtEGI2O-79" style="edgeStyle=none;html=1;exitX=0.5;exitY=1;exitDx=0;exitDy=0;entryX=0;entryY=0;entryDx=0;entryDy=0;" parent="2qmj4Z6egMab9GtEGI2O-1" source="2qmj4Z6egMab9GtEGI2O-80" target="2qmj4Z6egMab9GtEGI2O-90" edge="1">
                    <mxGeometry relative="1" as="geometry"/>
                </mxCell>
                <mxCell id="2qmj4Z6egMab9GtEGI2O-80" value="A" style="ellipse;whiteSpace=wrap;html=1;aspect=fixed;fillColor=none;" parent="2qmj4Z6egMab9GtEGI2O-1" vertex="1">
                    <mxGeometry x="40" y="480" width="40" height="40" as="geometry"/>
                </mxCell>
                <mxCell id="2qmj4Z6egMab9GtEGI2O-81" style="edgeStyle=none;html=1;exitX=0.5;exitY=1;exitDx=0;exitDy=0;entryX=0;entryY=0;entryDx=0;entryDy=0;" parent="2qmj4Z6egMab9GtEGI2O-1" source="2qmj4Z6egMab9GtEGI2O-82" target="2qmj4Z6egMab9GtEGI2O-92" edge="1">
                    <mxGeometry relative="1" as="geometry"/>
                </mxCell>
                <mxCell id="2qmj4Z6egMab9GtEGI2O-82" value="C" style="ellipse;whiteSpace=wrap;html=1;aspect=fixed;fillColor=none;" parent="2qmj4Z6egMab9GtEGI2O-1" vertex="1">
                    <mxGeometry x="120" y="480" width="40" height="40" as="geometry"/>
                </mxCell>
                <mxCell id="2qmj4Z6egMab9GtEGI2O-83" style="edgeStyle=none;html=1;exitX=0.5;exitY=1;exitDx=0;exitDy=0;entryX=1;entryY=0;entryDx=0;entryDy=0;" parent="2qmj4Z6egMab9GtEGI2O-1" source="2qmj4Z6egMab9GtEGI2O-82" target="2qmj4Z6egMab9GtEGI2O-90" edge="1">
                    <mxGeometry relative="1" as="geometry"/>
                </mxCell>
                <mxCell id="2qmj4Z6egMab9GtEGI2O-84" value="B" style="ellipse;whiteSpace=wrap;html=1;aspect=fixed;fillColor=none;" parent="2qmj4Z6egMab9GtEGI2O-1" vertex="1">
                    <mxGeometry x="200" y="480" width="40" height="40" as="geometry"/>
                </mxCell>
                <mxCell id="2qmj4Z6egMab9GtEGI2O-85" style="edgeStyle=none;html=1;exitX=0.5;exitY=1;exitDx=0;exitDy=0;entryX=1;entryY=0;entryDx=0;entryDy=0;" parent="2qmj4Z6egMab9GtEGI2O-1" source="2qmj4Z6egMab9GtEGI2O-84" target="2qmj4Z6egMab9GtEGI2O-92" edge="1">
                    <mxGeometry relative="1" as="geometry"/>
                </mxCell>
                <mxCell id="2qmj4Z6egMab9GtEGI2O-86" value="D" style="ellipse;whiteSpace=wrap;html=1;aspect=fixed;fillColor=none;" parent="2qmj4Z6egMab9GtEGI2O-1" vertex="1">
                    <mxGeometry x="280" y="480" width="40" height="40" as="geometry"/>
                </mxCell>
                <mxCell id="2qmj4Z6egMab9GtEGI2O-87" style="edgeStyle=none;html=1;exitX=0.5;exitY=1;exitDx=0;exitDy=0;entryX=0;entryY=0;entryDx=0;entryDy=0;" parent="2qmj4Z6egMab9GtEGI2O-1" source="2qmj4Z6egMab9GtEGI2O-84" target="2qmj4Z6egMab9GtEGI2O-94" edge="1">
                    <mxGeometry relative="1" as="geometry">
                        <mxPoint x="100.00000000000023" y="520" as="sourcePoint"/>
                    </mxGeometry>
                </mxCell>
                <mxCell id="2qmj4Z6egMab9GtEGI2O-88" style="edgeStyle=none;html=1;exitX=0.5;exitY=1;exitDx=0;exitDy=0;entryX=1;entryY=0;entryDx=0;entryDy=0;" parent="2qmj4Z6egMab9GtEGI2O-1" source="2qmj4Z6egMab9GtEGI2O-86" target="2qmj4Z6egMab9GtEGI2O-94" edge="1">
                    <mxGeometry relative="1" as="geometry">
                        <mxPoint x="260.0000000000002" y="520" as="sourcePoint"/>
                    </mxGeometry>
                </mxCell>
                <mxCell id="2qmj4Z6egMab9GtEGI2O-89" style="edgeStyle=none;rounded=0;html=1;exitX=0.5;exitY=1;exitDx=0;exitDy=0;entryX=0.5;entryY=0;entryDx=0;entryDy=0;" parent="2qmj4Z6egMab9GtEGI2O-1" source="2qmj4Z6egMab9GtEGI2O-90" target="2qmj4Z6egMab9GtEGI2O-98" edge="1">
                    <mxGeometry relative="1" as="geometry">
                        <mxPoint x="140" y="640" as="targetPoint"/>
                    </mxGeometry>
                </mxCell>
                <mxCell id="2qmj4Z6egMab9GtEGI2O-90" value="" style="shape=sumEllipse;perimeter=ellipsePerimeter;whiteSpace=wrap;html=1;backgroundOutline=1;fillColor=#f8cecc;strokeColor=#b85450;" parent="2qmj4Z6egMab9GtEGI2O-1" vertex="1">
                    <mxGeometry x="80" y="560" width="40" height="40" as="geometry"/>
                </mxCell>
                <mxCell id="2qmj4Z6egMab9GtEGI2O-91" value="34 bits" style="edgeStyle=none;rounded=0;html=1;exitX=0.5;exitY=1;exitDx=0;exitDy=0;entryX=1;entryY=0;entryDx=0;entryDy=0;" parent="2qmj4Z6egMab9GtEGI2O-1" source="2qmj4Z6egMab9GtEGI2O-92" target="2qmj4Z6egMab9GtEGI2O-101" edge="1">
                    <mxGeometry relative="1" as="geometry"/>
                </mxCell>
                <mxCell id="2qmj4Z6egMab9GtEGI2O-92" value="" style="shape=sumEllipse;perimeter=ellipsePerimeter;whiteSpace=wrap;html=1;backgroundOutline=1;fillColor=#e1d5e7;strokeColor=#9673a6;" parent="2qmj4Z6egMab9GtEGI2O-1" vertex="1">
                    <mxGeometry x="160" y="640" width="40" height="40" as="geometry"/>
                </mxCell>
                <mxCell id="2qmj4Z6egMab9GtEGI2O-93" style="edgeStyle=none;rounded=0;html=1;exitX=0.5;exitY=1;exitDx=0;exitDy=0;entryX=0.5;entryY=0;entryDx=0;entryDy=0;" parent="2qmj4Z6egMab9GtEGI2O-1" source="2qmj4Z6egMab9GtEGI2O-94" target="2qmj4Z6egMab9GtEGI2O-98" edge="1">
                    <mxGeometry relative="1" as="geometry">
                        <mxPoint x="220" y="640" as="targetPoint"/>
                    </mxGeometry>
                </mxCell>
                <mxCell id="2qmj4Z6egMab9GtEGI2O-94" value="" style="shape=sumEllipse;perimeter=ellipsePerimeter;whiteSpace=wrap;html=1;backgroundOutline=1;fillColor=#fff2cc;strokeColor=#d6b656;" parent="2qmj4Z6egMab9GtEGI2O-1" vertex="1">
                    <mxGeometry x="240" y="560" width="40" height="40" as="geometry"/>
                </mxCell>
                <mxCell id="2qmj4Z6egMab9GtEGI2O-95" value="46 bits" style="edgeStyle=none;rounded=0;html=1;exitX=0.5;exitY=1;exitDx=0;exitDy=0;entryX=0;entryY=0;entryDx=0;entryDy=0;" parent="2qmj4Z6egMab9GtEGI2O-1" source="2qmj4Z6egMab9GtEGI2O-98" target="2qmj4Z6egMab9GtEGI2O-101" edge="1">
                    <mxGeometry relative="1" as="geometry"/>
                </mxCell>
                <mxCell id="2qmj4Z6egMab9GtEGI2O-96" value="4 bits" style="edgeStyle=none;rounded=0;html=1;exitX=0.25;exitY=1;exitDx=0;exitDy=0;entryX=0;entryY=0;entryDx=0;entryDy=0;" parent="2qmj4Z6egMab9GtEGI2O-1" source="2qmj4Z6egMab9GtEGI2O-98" target="2qmj4Z6egMab9GtEGI2O-103" edge="1">
                    <mxGeometry relative="1" as="geometry"/>
                </mxCell>
                <mxCell id="2qmj4Z6egMab9GtEGI2O-97" value="18 bits" style="edgeStyle=none;rounded=0;html=1;exitX=0.75;exitY=1;exitDx=0;exitDy=0;entryX=0.5;entryY=0;entryDx=0;entryDy=0;" parent="2qmj4Z6egMab9GtEGI2O-1" source="2qmj4Z6egMab9GtEGI2O-98" target="2qmj4Z6egMab9GtEGI2O-105" edge="1">
                    <mxGeometry relative="1" as="geometry">
                        <mxPoint x="310" y="840" as="targetPoint"/>
                    </mxGeometry>
                </mxCell>
                <mxCell id="2qmj4Z6egMab9GtEGI2O-98" value="++" style="rounded=0;whiteSpace=wrap;html=1;strokeColor=default;fillColor=none;" parent="2qmj4Z6egMab9GtEGI2O-1" vertex="1">
                    <mxGeometry x="100" y="620" width="20" height="20" as="geometry"/>
                </mxCell>
                <mxCell id="2qmj4Z6egMab9GtEGI2O-99" value="carry" style="edgeStyle=none;rounded=0;html=1;exitX=0.5;exitY=1;exitDx=0;exitDy=0;entryX=1;entryY=0;entryDx=0;entryDy=0;" parent="2qmj4Z6egMab9GtEGI2O-1" source="2qmj4Z6egMab9GtEGI2O-101" target="2qmj4Z6egMab9GtEGI2O-103" edge="1">
                    <mxGeometry relative="1" as="geometry"/>
                </mxCell>
                <mxCell id="2qmj4Z6egMab9GtEGI2O-100" value="46 bits" style="edgeStyle=none;rounded=0;html=1;exitX=0.5;exitY=1;exitDx=0;exitDy=0;entryX=0.5;entryY=0;entryDx=0;entryDy=0;" parent="2qmj4Z6egMab9GtEGI2O-1" source="2qmj4Z6egMab9GtEGI2O-101" target="2qmj4Z6egMab9GtEGI2O-105" edge="1">
                    <mxGeometry relative="1" as="geometry"/>
                </mxCell>
                <mxCell id="2qmj4Z6egMab9GtEGI2O-101" value="" style="shape=orEllipse;perimeter=ellipsePerimeter;whiteSpace=wrap;html=1;backgroundOutline=1;strokeColor=#9673a6;fillColor=#e1d5e7;" parent="2qmj4Z6egMab9GtEGI2O-1" vertex="1">
                    <mxGeometry x="160" y="720" width="40" height="40" as="geometry"/>
                </mxCell>
                <mxCell id="2qmj4Z6egMab9GtEGI2O-102" value="4 bits" style="edgeStyle=none;rounded=0;html=1;exitX=0.5;exitY=1;exitDx=0;exitDy=0;entryX=0.5;entryY=0;entryDx=0;entryDy=0;" parent="2qmj4Z6egMab9GtEGI2O-1" source="2qmj4Z6egMab9GtEGI2O-103" target="2qmj4Z6egMab9GtEGI2O-105" edge="1">
                    <mxGeometry relative="1" as="geometry"/>
                </mxCell>
                <mxCell id="2qmj4Z6egMab9GtEGI2O-103" value="" style="shape=orEllipse;perimeter=ellipsePerimeter;whiteSpace=wrap;html=1;backgroundOutline=1;" parent="2qmj4Z6egMab9GtEGI2O-1" vertex="1">
                    <mxGeometry x="80" y="800" width="40" height="40" as="geometry"/>
                </mxCell>
                <mxCell id="2qmj4Z6egMab9GtEGI2O-104" value="68 bits" style="edgeStyle=none;rounded=0;html=1;exitX=0.5;exitY=1;exitDx=0;exitDy=0;" parent="2qmj4Z6egMab9GtEGI2O-1" source="2qmj4Z6egMab9GtEGI2O-105" edge="1">
                    <mxGeometry relative="1" as="geometry">
                        <mxPoint x="180.1428571428571" y="920" as="targetPoint"/>
                    </mxGeometry>
                </mxCell>
                <mxCell id="2qmj4Z6egMab9GtEGI2O-105" value="++" style="rounded=0;whiteSpace=wrap;html=1;strokeColor=default;fillColor=none;" parent="2qmj4Z6egMab9GtEGI2O-1" vertex="1">
                    <mxGeometry x="170" y="860" width="20" height="20" as="geometry"/>
                </mxCell>
                <mxCell id="2qmj4Z6egMab9GtEGI2O-106" value="DSP0" style="rounded=0;whiteSpace=wrap;html=1;fillColor=#f8cecc;strokeColor=#b85450;" parent="2qmj4Z6egMab9GtEGI2O-1" vertex="1">
                    <mxGeometry x="40" y="640" width="40" height="20" as="geometry"/>
                </mxCell>
                <mxCell id="2qmj4Z6egMab9GtEGI2O-107" value="DSP1" style="rounded=0;whiteSpace=wrap;html=1;fillColor=#fff2cc;strokeColor=#d6b656;" parent="2qmj4Z6egMab9GtEGI2O-1" vertex="1">
                    <mxGeometry x="40" y="680" width="40" height="20" as="geometry"/>
                </mxCell>
                <mxCell id="2qmj4Z6egMab9GtEGI2O-108" value="DSP2" style="rounded=0;whiteSpace=wrap;html=1;fillColor=#e1d5e7;strokeColor=#9673a6;" parent="2qmj4Z6egMab9GtEGI2O-1" vertex="1">
                    <mxGeometry x="40" y="720" width="40" height="20" as="geometry"/>
                </mxCell>
            </root>
        </mxGraphModel>
    </diagram>
</mxfile>